<?xml version="1.0" encoding="utf-8"?>
<!-- Generator: Adobe Illustrator 27.5.0, SVG Export Plug-In . SVG Version: 6.00 Build 0)  -->
<svg version="1.1" id="Ñëîé_1" xmlns="http://www.w3.org/2000/svg" xmlns:xlink="http://www.w3.org/1999/xlink" x="0px" y="0px"
	 viewBox="0 0 2600 2000" style="enable-background:new 0 0 2600 2000;" xml:space="preserve">
<rect id="_x31_5" style="fill:#FDFFFE;" width="2600" height="2000"/>
<g>
	<path id="_x31_4" style="fill:#A2C3F2;" d="M313.843,1875.779c0,0-189.881-308.312-135.843-540.779c53-228,207.211-206.508,266-512
		s138-480,308.301-442c160.755,35.87,271.898,219.408,455.613,149.072C1391.629,459.735,1567,251,1774,251
		c210,0,278.203,160.397,295,405s269.58,206.879,369.279,396.871C2549.558,1264.931,2447,1633,2264,1874L313.843,1875.779z"/>
	<g id="_x31_3">
		<path style="fill:#308730;" d="M803.642,1875.946c0,0-4.156-117.763,118.519-184.875
			c138.258-75.637,302.151,109.959,424.45,97.698c103.443-10.37,140.48-123.188,250.557-148.559
			c109.595-25.26,217.335,75.965,191.872,235.708L803.642,1875.946z"/>
		<path style="fill:#60BF60;" d="M807.139,1875.734c0,0-4.126-89.035,117.681-139.774c137.281-57.185,300.015,83.134,421.449,73.864
			c102.711-7.841,139.487-93.136,248.785-112.317c108.821-19.097,215.798,57.433,190.516,178.206L807.139,1875.734z"/>
		<path style="fill:#5AA85A;" d="M830.028,1875.795c0,0-3.934-53.444,112.196-83.901c130.882-34.326,286.031,49.902,401.806,44.338
			c97.924-4.706,132.985-55.906,237.189-67.42c103.748-11.463,205.74,34.475,181.636,106.97L830.028,1875.795z"/>
	</g>
	<g id="_x31_2">
		<path style="fill:#60BF60;" d="M410.103,1877.421c0,0-160.51-237.94-107.762-278.15c52.748-40.21,220.072,175.336,220.072,175.336
			s-98.494-217.585-77.867-341.556c20.627-123.97,180.047,166.579,218.447,309.126c0,0-9.687-200.827,82.012-282.561
			c91.699-81.734,58.062,328.428,58.062,328.428s57.584-236.109,120.146-247.453c62.562-11.345-18.758,334.976-18.758,334.976
			L410.103,1877.421z"/>
		<path style="fill:#308730;" d="M496.759,1878.637c-0.304,0-0.603-0.144-0.79-0.413l-159.659-229.479
			c-0.303-0.436-0.196-1.035,0.24-1.338c0.436-0.305,1.035-0.197,1.339,0.24l159.659,229.479c0.303,0.436,0.196,1.035-0.24,1.338
			C497.14,1878.581,496.949,1878.637,496.759,1878.637z"/>
		<path style="fill:#308730;" d="M631.431,1877.553c-0.393,0-0.762-0.242-0.904-0.633l-153.665-422.021
			c-0.182-0.499,0.076-1.05,0.574-1.232c0.498-0.179,1.051,0.075,1.232,0.574l153.665,422.021c0.182,0.499-0.075,1.05-0.574,1.232
			C631.652,1877.534,631.541,1877.553,631.431,1877.553z"/>
		<path style="fill:#308730;" d="M706.903,1877.271c-0.023,0-0.046-0.001-0.069-0.003c-0.53-0.037-0.929-0.497-0.892-1.026
			c10.811-153.364,55.023-365.17,55.468-367.291c0.109-0.52,0.621-0.846,1.139-0.744c0.52,0.109,0.852,0.619,0.743,1.139
			c-0.445,2.12-44.63,213.799-55.432,367.03C707.826,1876.883,707.403,1877.271,706.903,1877.271z"/>
		<path style="fill:#308730;" d="M833.574,1877.271c-0.066,0-0.133-0.007-0.199-0.021c-0.52-0.109-0.852-0.619-0.743-1.139
			c14.477-68.739,77.422-288.872,78.057-291.088c0.146-0.511,0.677-0.806,1.189-0.66c0.511,0.146,0.806,0.679,0.66,1.189
			c-0.634,2.215-63.561,222.282-78.023,290.954C834.418,1876.959,834.018,1877.271,833.574,1877.271z"/>
	</g>
	<g id="_x31_1">
		<path style="fill:#60BF60;" d="M2189.897,1877.421c0,0,160.51-237.94,107.762-278.15s-220.072,175.336-220.072,175.336
			s98.494-217.585,77.867-341.556c-20.627-123.97-180.047,166.579-218.447,309.126c0,0,9.688-200.827-82.012-282.561
			c-91.699-81.734-58.062,328.428-58.062,328.428s-57.584-236.109-120.146-247.453c-62.562-11.345,18.758,334.976,18.758,334.976
			L2189.897,1877.421z"/>
		<path style="fill:#308730;" d="M2103.241,1878.637c-0.19,0-0.381-0.056-0.548-0.173c-0.436-0.303-0.544-0.902-0.24-1.338
			l159.659-229.479c0.302-0.437,0.904-0.544,1.338-0.24c0.436,0.303,0.544,0.902,0.24,1.338l-159.659,229.479
			C2103.845,1878.493,2103.545,1878.637,2103.241,1878.637z"/>
		<path style="fill:#308730;" d="M1968.568,1877.553c-0.109,0-0.22-0.019-0.329-0.058c-0.499-0.182-0.756-0.734-0.574-1.233
			l153.665-422.021c0.182-0.499,0.733-0.756,1.233-0.574c0.499,0.182,0.756,0.734,0.574,1.232l-153.665,422.021
			C1969.33,1877.311,1968.961,1877.553,1968.568,1877.553z"/>
		<path style="fill:#308730;" d="M1893.097,1877.271c-0.501,0-0.923-0.387-0.958-0.895c-10.802-153.231-54.987-364.91-55.432-367.03
			c-0.109-0.52,0.224-1.03,0.744-1.139c0.522-0.105,1.029,0.224,1.139,0.744c0.445,2.121,44.656,213.927,55.468,367.291
			c0.038,0.529-0.362,0.99-0.892,1.026C1893.142,1877.27,1893.12,1877.271,1893.097,1877.271z"/>
		<path style="fill:#308730;" d="M1766.427,1877.271c-0.446,0-0.845-0.311-0.94-0.764c-14.463-68.672-77.389-288.74-78.023-290.954
			c-0.146-0.511,0.149-1.043,0.659-1.189c0.51-0.147,1.043,0.149,1.189,0.66c0.634,2.216,63.579,222.349,78.056,291.088
			c0.11,0.52-0.223,1.03-0.742,1.139C1766.558,1877.263,1766.492,1877.271,1766.427,1877.271z"/>
	</g>
	<g id="_x31_0">
		<path style="fill:#3E8EDD;" d="M2255.083,436.132l-361.896,29.269l98.59,71.836l-240.455,132.15l-165.87-233.247L964.794,736.812
			L792.748,525.167L314.734,765.511c-15.025,7.555-21.057,25.877-13.458,40.88v0c7.566,14.937,25.789,20.939,40.751,13.422
			L776.5,601.514l171.488,210.959l617.719-299.248l164.795,231.736l285.77-152.115l-13.537,121.201L2255.083,436.132z"/>
		<path style="fill:#F1F3F2;" d="M298.142,790.642c-0.432,0.015-0.853-0.217-1.059-0.629c-0.282-0.563-0.054-1.247,0.508-1.529
			l490.057-245.452c0.475-0.239,1.049-0.117,1.387,0.291l175.461,211.375l615.952-297.508c0.498-0.241,1.099-0.088,1.422,0.362
			l164.277,229.106l253.477-139.001c0.549-0.303,1.243-0.101,1.547,0.451c0.302,0.552,0.101,1.244-0.452,1.547l-254.362,139.487
			c-0.505,0.277-1.138,0.133-1.473-0.335L1580.578,459.66L964.685,757.139c-0.471,0.227-1.038,0.105-1.372-0.298L787.86,545.475
			L298.612,790.522C298.461,790.598,298.301,790.637,298.142,790.642z"/>
		<path style="fill:#F1F3F2;" d="M1907.26,476.996c-0.606,0.021-1.127-0.44-1.174-1.051c-0.049-0.627,0.42-1.175,1.048-1.224
			l335.035-25.983c0.647-0.042,1.175,0.421,1.224,1.048c0.049,0.627-0.421,1.175-1.048,1.224l-335.034,25.983
			C1907.293,476.995,1907.277,476.996,1907.26,476.996z"/>
	</g>
	<g id="_x39_">
		<path style="fill:#A2C3F2;" d="M2279.855,675.564c1.691,0,3.348,0.145,4.964,0.411c-0.154-1.24-0.243-2.501-0.243-3.783
			c0-16.762,13.588-30.35,30.35-30.35c10.567,0,19.868,5.403,25.303,13.594c2.223-14.571,14.809-25.734,30.001-25.734
			c16.762,0,30.35,13.588,30.35,30.35c0,3.061-0.458,6.014-1.301,8.801c0.432-0.018,0.865-0.033,1.301-0.033
			c16.762,0,30.35,13.588,30.35,30.35s-13.588,30.35-30.35,30.35c-6.544,0-12.599-2.078-17.556-5.601
			c-6.729,14.082-21.101,23.811-37.748,23.811c-17.809,0-33.008-11.138-39.036-26.824c-5.222,9.17-15.078,15.358-26.385,15.358
			c-16.762,0-30.35-13.588-30.35-30.35C2249.505,689.153,2263.093,675.564,2279.855,675.564z"/>
		<path style="fill:#A2C3F2;" d="M262.364,459.57c1.691,0,3.348,0.145,4.964,0.411c-0.154-1.24-0.243-2.501-0.243-3.783
			c0-16.762,13.588-30.35,30.35-30.35c10.567,0,19.868,5.403,25.303,13.594c2.223-14.571,14.809-25.734,30.001-25.734
			c16.762,0,30.35,13.588,30.35,30.35c0,3.061-0.458,6.015-1.301,8.801c0.432-0.018,0.865-0.033,1.301-0.033
			c16.762,0,30.35,13.588,30.35,30.35c0,16.762-13.588,30.35-30.35,30.35c-6.544,0-12.599-2.078-17.556-5.601
			c-6.729,14.081-21.101,23.811-37.748,23.811c-17.809,0-33.008-11.138-39.036-26.824c-5.222,9.17-15.078,15.358-26.385,15.358
			c-16.762,0-30.35-13.588-30.35-30.35C232.014,473.158,245.602,459.57,262.364,459.57z"/>
		<path style="fill:#FDFFFE;" d="M2277.383,1060.461c-2.413,0.118-4.766,0.441-7.053,0.933c0.134-1.78,0.172-3.585,0.083-5.413
			c-1.172-23.91-21.505-42.344-45.415-41.172c-15.073,0.739-27.964,9.096-35.145,21.161c-4.19-20.63-22.923-35.674-44.594-34.612
			c-23.911,1.172-42.344,21.505-41.173,45.415c0.214,4.367,1.073,8.548,2.471,12.463c-0.617,0.004-1.236,0.014-1.858,0.044
			c-23.911,1.172-42.344,21.505-41.173,45.415c1.172,23.91,21.505,42.344,45.415,41.172c9.335-0.457,17.827-3.845,24.652-9.217
			c10.582,19.617,31.764,32.491,55.511,31.328c25.404-1.245,46.306-18.195,53.809-40.992c8.09,12.716,22.582,20.855,38.711,20.064
			c23.911-1.172,42.344-21.505,41.172-45.415C2321.627,1077.723,2301.294,1059.289,2277.383,1060.461z"/>
		<path style="fill:#A2C3F2;" d="M964.411,207.135c3.163,0,6.262,0.271,9.284,0.768c-0.289-2.32-0.455-4.677-0.455-7.075
			c0-31.348,25.413-56.761,56.761-56.761c19.762,0,37.158,10.105,47.322,25.424c4.158-27.251,27.695-48.128,56.108-48.128
			c31.348,0,56.761,25.413,56.761,56.761c0,5.725-0.856,11.248-2.433,16.459c0.807-0.034,1.617-0.061,2.433-0.061
			c31.348,0,56.76,25.413,56.76,56.761c0,31.348-25.413,56.76-56.76,56.76c-12.239,0-23.563-3.887-32.834-10.475
			c-12.584,26.335-39.463,44.531-70.597,44.531c-33.306,0-61.731-20.83-73.005-50.166c-9.766,17.15-28.198,28.723-49.345,28.723
			c-31.348,0-56.76-25.413-56.76-56.76S933.063,207.135,964.411,207.135z"/>
	</g>
	<g id="_x38_">
		<circle style="fill:#FFB12A;" cx="1082.493" cy="584.644" r="184.036"/>
		<path style="fill:#FACE6C;" d="M1004.727,722.591c-70.808-39.848-100.625-128.235-66.366-203.528
			c36.162-79.474,130.239-114.712,209.713-78.55c79.47,36.169,114.71,130.239,78.55,209.713
			c-36.162,79.474-130.238,114.712-209.712,78.551C1012.731,726.873,1008.659,724.804,1004.727,722.591z M1156.778,452.872
			c-3.761-2.117-7.641-4.089-11.64-5.908c-75.917-34.544-165.783-0.883-200.326,75.034c-32.723,71.918-4.237,156.355,63.395,194.419
			c3.761,2.116,7.64,4.088,11.639,5.907c75.917,34.543,165.783,0.883,200.325-75.034
			C1252.896,575.372,1224.412,490.934,1156.778,452.872z"/>
		<path style="fill:#FACE6C;" d="M1126.547,649.555c11.644-25.591,4.373-48.978-22.227-75.542
			c-19.447-19.552-27.16-29.198-21.928-40.697c4.212-9.257,16.473-13.635,34.297-5.525c8.475,3.856,15.347,8.434,20.821,12.892
			c7.873,6.41,19.439,5.252,25.948-2.54l0,0c6.644-7.953,5.58-19.897-2.535-26.342c-5.577-4.43-12.253-8.848-20.261-13.055
			l0.109-0.239c4.246-9.332,0.123-20.339-9.209-24.585l0,0c-9.332-4.246-20.339-0.123-24.585,9.209l-1.462,3.214
			c-30.567-4.94-55.279,7.46-66.244,31.559c-12.031,26.442,0.215,51.877,25.541,76.329c18.197,17.497,23.852,27.977,18.794,39.094
			c-5.421,11.914-18.937,15.183-37.736,6.63c-9.945-4.526-18.921-10.773-26.321-17.296c-8.16-7.193-20.666-6.099-27.396,2.448l0,0
			c-6.297,7.996-5.102,19.497,2.624,26.123c7.474,6.41,16.964,13.02,27.344,18.393l-0.076,0.168
			c-4.246,9.332-0.123,20.339,9.209,24.585l0,0c9.332,4.246,20.339,0.123,24.585-9.208l1.469-3.228
			C1091.551,688.062,1115.676,673.449,1126.547,649.555z"/>
	</g>
	<g id="_x37_">
		<ellipse style="fill:#FF593A;" cx="1275.101" cy="1293.538" rx="641.952" ry="495.243"/>
		<path style="fill:#FF593A;" d="M1897.867,1448.908h-38.552v-310.741h38.552c47.703,0,86.374,38.671,86.374,86.374v137.993
			C1984.241,1410.237,1945.57,1448.908,1897.867,1448.908z"/>
		<path style="fill:#FF593A;" d="M970.635,1872.778c-6.909,0-13.926-1.371-20.677-4.269c-26.64-11.434-38.967-42.298-27.534-68.937
			l52.49-122.303c11.433-26.64,42.297-38.966,68.937-27.533c26.64,11.434,38.967,42.298,27.534,68.938l-52.49,122.301
			C1010.359,1860.865,990.988,1872.778,970.635,1872.778z"/>
		<path style="fill:#FF593A;" d="M1579.568,1872.778c-20.355,0-39.724-11.912-48.261-31.802l-52.49-122.302
			c-11.433-26.64,0.894-57.504,27.533-68.938c26.646-11.433,57.504,0.896,68.938,27.533l52.49,122.302
			c11.433,26.64-0.894,57.504-27.533,68.938C1593.495,1871.406,1586.475,1872.778,1579.568,1872.778z"/>
		<path style="fill:#FF593A;" d="M710.83,1179.267c-14.059,0-32.908-1.129-52.953-5.535c-25.16-5.53-46.609-15.002-63.965-28.1
			c-14.641,1.448-30.486-1.267-46.806-8.109c-26.62-11.161-54.043-32.934-81.507-64.713c-4.549-5.265-3.969-13.22,1.294-17.769
			c5.264-4.548,13.219-3.971,17.769,1.294c28.414,32.879,57.1,54.011,82.223,61.47c-7.101-10.087-12.743-21.326-16.854-33.66
			c-10.998-32.995-6.666-62.282,11.886-80.353c14.956-14.569,37.526-19.3,57.503-12.052c22.859,8.294,38.262,30.322,41.203,58.925
			c1.976,19.226-1.037,37.745-8.715,53.557c-6.461,13.308-15.834,23.912-27.422,31.13c11.137,5.886,23.864,10.436,38.156,13.63
			c36.072,8.061,68.907,4.089,69.235,4.048c6.907-0.858,13.2,4.021,14.073,10.917c0.873,6.896-3.998,13.196-10.894,14.077
			C734.307,1178.119,725.002,1179.267,710.83,1179.267z M600.26,1013.566c-7.708,0-15.225,2.88-20.763,8.274
			c-11.358,11.063-13.386,30.868-5.563,54.337c5.613,16.838,14.604,31.027,26.899,42.504c1.526-0.473,3.024-1.025,4.49-1.658
			c21.073-9.099,33.224-34.73,30.237-63.782c-1.957-19.04-10.972-32.823-24.733-37.816
			C607.38,1014.175,603.799,1013.566,600.26,1013.566z"/>
		
			<ellipse transform="matrix(0.1602 -0.9871 0.9871 0.1602 318.0237 2684.2454)" style="fill:#9B453A;" cx="1736.488" cy="1155.227" rx="25.195" ry="25.195"/>
		<path style="fill:#9B453A;" d="M1145.451,864.96c-5.213,0-10.089-3.261-11.898-8.462c-2.286-6.571,1.188-13.751,7.76-16.037
			c1.287-0.448,32.08-11.026,80.44-16.37c44.513-4.92,113.028-6.099,186.652,16.212c6.658,2.018,10.421,9.051,8.403,15.709
			c-2.019,6.658-9.051,10.422-15.71,8.403c-133.112-40.337-250.34-0.564-251.509-0.158
			C1148.22,864.734,1146.823,864.96,1145.451,864.96z"/>
		<path style="fill:#FF593A;" d="M1369.521,974.026c0,0,89.167-210.091,208.73-276.221
			c119.563-66.13,118.494,248.577,88.588,375.717C1666.839,1073.522,1501.881,1121.854,1369.521,974.026z"/>
		<path style="fill:#9B453A;" d="M1055.798,1761.225c-0.172,0-0.347-0.021-0.521-0.066
			c-49.896-12.761-100.042-35.832-100.542-36.064c-1.052-0.486-1.511-1.734-1.024-2.786c0.487-1.053,1.735-1.515,2.787-1.024
			c0.497,0.229,50.305,23.144,99.819,35.807c1.124,0.287,1.801,1.431,1.514,2.555
			C1057.588,1760.593,1056.734,1761.225,1055.798,1761.225z"/>
		<path style="fill:#9B453A;" d="M1496.697,1761.225c-0.903,0-1.737-0.588-2.01-1.498c-0.333-1.11,0.297-2.28,1.408-2.613
			c0.61-0.184,61.473-18.508,98.486-36.22c1.042-0.502,2.299-0.061,2.8,0.987c0.501,1.046,0.059,2.3-0.987,2.8
			c-37.31,17.854-98.479,36.271-99.094,36.454C1497.101,1761.195,1496.897,1761.225,1496.697,1761.225z"/>
		<path style="fill:#9B453A;" d="M1447.269,1025.577c-0.224,0-0.451-0.036-0.675-0.112c-1.099-0.373-1.687-1.565-1.313-2.663
			c0.224-0.657,22.722-66.59,57.327-139.038c46.566-97.49,91.675-159.716,134.072-184.947c0.996-0.593,2.284-0.267,2.879,0.73
			c0.593,0.997,0.266,2.285-0.73,2.878c-41.08,24.447-86.868,87.766-132.413,183.11c-34.504,72.229-56.936,137.961-57.158,138.616
			C1448.96,1025.025,1448.144,1025.577,1447.269,1025.577z"/>
	</g>
	<g id="_x36_">
		<path style="fill:#FFB12A;" d="M1459.189,1829.084h-205.134c-6.172,0-11.175-5.003-11.175-11.175v-0.805
			c0-6.172,5.003-11.175,11.175-11.175h205.134c6.172,0,11.175,5.003,11.175,11.175v0.805
			C1470.364,1824.081,1465.361,1829.084,1459.189,1829.084z"/>
		<rect x="1259.902" y="1805.929" style="fill:#FACE6C;" width="2.658" height="23.155"/>
		<rect x="1275.8" y="1805.929" style="fill:#FACE6C;" width="2.658" height="23.155"/>
		<rect x="1291.699" y="1805.929" style="fill:#FACE6C;" width="2.658" height="23.155"/>
		<rect x="1307.598" y="1805.929" style="fill:#FACE6C;" width="2.658" height="23.155"/>
		<rect x="1323.496" y="1805.929" style="fill:#FACE6C;" width="2.658" height="23.155"/>
		<rect x="1339.395" y="1805.929" style="fill:#FACE6C;" width="2.658" height="23.155"/>
		<rect x="1355.293" y="1805.929" style="fill:#FACE6C;" width="2.658" height="23.155"/>
		<rect x="1371.192" y="1805.929" style="fill:#FACE6C;" width="2.658" height="23.155"/>
		<rect x="1387.091" y="1805.929" style="fill:#FACE6C;" width="2.658" height="23.155"/>
		<rect x="1402.989" y="1805.929" style="fill:#FACE6C;" width="2.658" height="23.155"/>
		<rect x="1418.888" y="1805.929" style="fill:#FACE6C;" width="2.658" height="23.155"/>
		<rect x="1434.786" y="1805.929" style="fill:#FACE6C;" width="2.658" height="23.155"/>
		<rect x="1450.685" y="1805.929" style="fill:#FACE6C;" width="2.658" height="23.155"/>
		<path style="fill:#FFB12A;" d="M1451.345,1805.929h-205.134c-6.172,0-11.175-5.003-11.175-11.175v-0.806
			c0-6.172,5.003-11.174,11.175-11.174h205.134c6.172,0,11.175,5.003,11.175,11.174v0.806
			C1462.52,1800.926,1457.517,1805.929,1451.345,1805.929z"/>
		<rect x="1252.057" y="1782.775" style="fill:#FACE6C;" width="2.658" height="23.154"/>
		<rect x="1267.956" y="1782.775" style="fill:#FACE6C;" width="2.658" height="23.154"/>
		<rect x="1283.855" y="1782.775" style="fill:#FACE6C;" width="2.658" height="23.154"/>
		<rect x="1299.753" y="1782.775" style="fill:#FACE6C;" width="2.658" height="23.154"/>
		<rect x="1315.652" y="1782.775" style="fill:#FACE6C;" width="2.658" height="23.154"/>
		<rect x="1331.551" y="1782.775" style="fill:#FACE6C;" width="2.658" height="23.154"/>
		<rect x="1347.449" y="1782.775" style="fill:#FACE6C;" width="2.658" height="23.154"/>
		<rect x="1363.348" y="1782.775" style="fill:#FACE6C;" width="2.658" height="23.154"/>
		<rect x="1379.246" y="1782.775" style="fill:#FACE6C;" width="2.658" height="23.154"/>
		<rect x="1395.145" y="1782.775" style="fill:#FACE6C;" width="2.658" height="23.154"/>
		<rect x="1411.044" y="1782.775" style="fill:#FACE6C;" width="2.658" height="23.154"/>
		<rect x="1426.942" y="1782.775" style="fill:#FACE6C;" width="2.658" height="23.154"/>
		<rect x="1442.841" y="1782.775" style="fill:#FACE6C;" width="2.658" height="23.154"/>
		<path style="fill:#FFB12A;" d="M1459.189,1875.393h-205.134c-6.172,0-11.175-5.003-11.175-11.174v-0.806
			c0-6.171,5.003-11.174,11.175-11.174h205.134c6.172,0,11.175,5.003,11.175,11.174v0.806
			C1470.364,1870.39,1465.361,1875.393,1459.189,1875.393z"/>
		<rect x="1259.902" y="1852.238" style="fill:#FACE6C;" width="2.658" height="23.154"/>
		<rect x="1275.8" y="1852.238" style="fill:#FACE6C;" width="2.658" height="23.154"/>
		<rect x="1291.699" y="1852.238" style="fill:#FACE6C;" width="2.658" height="23.154"/>
		<rect x="1307.598" y="1852.238" style="fill:#FACE6C;" width="2.658" height="23.154"/>
		<rect x="1323.496" y="1852.238" style="fill:#FACE6C;" width="2.658" height="23.154"/>
		<rect x="1339.395" y="1852.238" style="fill:#FACE6C;" width="2.658" height="23.154"/>
		<rect x="1355.293" y="1852.238" style="fill:#FACE6C;" width="2.658" height="23.154"/>
		<rect x="1371.192" y="1852.238" style="fill:#FACE6C;" width="2.658" height="23.154"/>
		<rect x="1387.091" y="1852.238" style="fill:#FACE6C;" width="2.658" height="23.154"/>
		<rect x="1402.989" y="1852.238" style="fill:#FACE6C;" width="2.658" height="23.154"/>
		<rect x="1418.888" y="1852.238" style="fill:#FACE6C;" width="2.658" height="23.154"/>
		<rect x="1434.786" y="1852.238" style="fill:#FACE6C;" width="2.658" height="23.154"/>
		<rect x="1450.685" y="1852.238" style="fill:#FACE6C;" width="2.658" height="23.154"/>
		<path style="fill:#FFB12A;" d="M1435.447,1852.238h-205.134c-6.172,0-11.175-5.003-11.175-11.175v-0.806
			c0-6.172,5.003-11.174,11.175-11.174h205.134c6.172,0,11.175,5.003,11.175,11.174v0.806
			C1446.621,1847.235,1441.618,1852.238,1435.447,1852.238z"/>
		<rect x="1236.159" y="1829.084" style="fill:#FACE6C;" width="2.658" height="23.155"/>
		<rect x="1252.057" y="1829.084" style="fill:#FACE6C;" width="2.658" height="23.155"/>
		<rect x="1267.956" y="1829.084" style="fill:#FACE6C;" width="2.658" height="23.155"/>
		<rect x="1283.855" y="1829.084" style="fill:#FACE6C;" width="2.658" height="23.155"/>
		<rect x="1299.753" y="1829.084" style="fill:#FACE6C;" width="2.658" height="23.155"/>
		<rect x="1315.652" y="1829.084" style="fill:#FACE6C;" width="2.658" height="23.155"/>
		<rect x="1331.551" y="1829.084" style="fill:#FACE6C;" width="2.658" height="23.155"/>
		<rect x="1347.449" y="1829.084" style="fill:#FACE6C;" width="2.658" height="23.155"/>
		<rect x="1363.348" y="1829.084" style="fill:#FACE6C;" width="2.658" height="23.155"/>
		<rect x="1379.246" y="1829.084" style="fill:#FACE6C;" width="2.658" height="23.155"/>
		<rect x="1395.145" y="1829.084" style="fill:#FACE6C;" width="2.658" height="23.155"/>
		<rect x="1411.044" y="1829.084" style="fill:#FACE6C;" width="2.658" height="23.155"/>
		<rect x="1426.942" y="1829.084" style="fill:#FACE6C;" width="2.658" height="23.155"/>
		<path style="fill:#FFB12A;" d="M1427.75,1782.775h-205.134c-6.172,0-11.175-5.003-11.175-11.175v-0.805
			c0-6.172,5.003-11.175,11.175-11.175h205.134c6.172,0,11.175,5.003,11.175,11.175v0.805
			C1438.924,1777.771,1433.921,1782.775,1427.75,1782.775z"/>
		<rect x="1228.462" y="1759.62" style="fill:#FACE6C;" width="2.658" height="23.155"/>
		<rect x="1244.361" y="1759.62" style="fill:#FACE6C;" width="2.658" height="23.155"/>
		<rect x="1260.259" y="1759.62" style="fill:#FACE6C;" width="2.658" height="23.155"/>
		<rect x="1276.158" y="1759.62" style="fill:#FACE6C;" width="2.658" height="23.155"/>
		<rect x="1292.057" y="1759.62" style="fill:#FACE6C;" width="2.658" height="23.155"/>
		<rect x="1307.955" y="1759.62" style="fill:#FACE6C;" width="2.658" height="23.155"/>
		<rect x="1323.854" y="1759.62" style="fill:#FACE6C;" width="2.658" height="23.155"/>
		<rect x="1339.752" y="1759.62" style="fill:#FACE6C;" width="2.658" height="23.155"/>
		<rect x="1355.651" y="1759.62" style="fill:#FACE6C;" width="2.658" height="23.155"/>
		<rect x="1371.55" y="1759.62" style="fill:#FACE6C;" width="2.658" height="23.155"/>
		<rect x="1387.448" y="1759.62" style="fill:#FACE6C;" width="2.658" height="23.155"/>
		<rect x="1403.347" y="1759.62" style="fill:#FACE6C;" width="2.658" height="23.155"/>
		<rect x="1419.245" y="1759.62" style="fill:#FACE6C;" width="2.658" height="23.155"/>
		<path style="fill:#FFB12A;" d="M1451.519,1713.311h-205.134c-6.172,0-11.174-5.003-11.174-11.175v-0.806
			c0-6.171,5.003-11.174,11.174-11.174h205.134c6.172,0,11.175,5.003,11.175,11.174v0.806
			C1462.693,1708.308,1457.69,1713.311,1451.519,1713.311z"/>
		<rect x="1252.231" y="1690.156" style="fill:#FACE6C;" width="2.658" height="23.154"/>
		<rect x="1268.13" y="1690.156" style="fill:#FACE6C;" width="2.658" height="23.154"/>
		<rect x="1284.028" y="1690.156" style="fill:#FACE6C;" width="2.658" height="23.154"/>
		<rect x="1299.927" y="1690.156" style="fill:#FACE6C;" width="2.658" height="23.154"/>
		<rect x="1315.825" y="1690.156" style="fill:#FACE6C;" width="2.658" height="23.154"/>
		<rect x="1331.724" y="1690.156" style="fill:#FACE6C;" width="2.658" height="23.154"/>
		<rect x="1347.623" y="1690.156" style="fill:#FACE6C;" width="2.658" height="23.154"/>
		<rect x="1363.521" y="1690.156" style="fill:#FACE6C;" width="2.658" height="23.154"/>
		<rect x="1379.42" y="1690.156" style="fill:#FACE6C;" width="2.658" height="23.154"/>
		<rect x="1395.318" y="1690.156" style="fill:#FACE6C;" width="2.658" height="23.154"/>
		<rect x="1411.217" y="1690.156" style="fill:#FACE6C;" width="2.658" height="23.154"/>
		<rect x="1427.115" y="1690.156" style="fill:#FACE6C;" width="2.658" height="23.154"/>
		<rect x="1443.014" y="1690.156" style="fill:#FACE6C;" width="2.658" height="23.154"/>
		<path style="fill:#FFB12A;" d="M1443.674,1690.156H1238.54c-6.172,0-11.175-5.003-11.175-11.175v-0.806
			c0-6.172,5.003-11.174,11.175-11.174h205.134c6.172,0,11.174,5.003,11.174,11.174v0.806
			C1454.849,1685.153,1449.846,1690.156,1443.674,1690.156z"/>
		<rect x="1244.386" y="1667.001" style="fill:#FACE6C;" width="2.658" height="23.154"/>
		<rect x="1260.285" y="1667.001" style="fill:#FACE6C;" width="2.658" height="23.154"/>
		<rect x="1276.184" y="1667.001" style="fill:#FACE6C;" width="2.658" height="23.154"/>
		<rect x="1292.082" y="1667.001" style="fill:#FACE6C;" width="2.658" height="23.154"/>
		<rect x="1307.981" y="1667.001" style="fill:#FACE6C;" width="2.658" height="23.154"/>
		<rect x="1323.88" y="1667.001" style="fill:#FACE6C;" width="2.658" height="23.154"/>
		<rect x="1339.778" y="1667.001" style="fill:#FACE6C;" width="2.658" height="23.154"/>
		<rect x="1355.677" y="1667.001" style="fill:#FACE6C;" width="2.658" height="23.154"/>
		<rect x="1371.575" y="1667.001" style="fill:#FACE6C;" width="2.658" height="23.154"/>
		<rect x="1387.474" y="1667.001" style="fill:#FACE6C;" width="2.658" height="23.154"/>
		<rect x="1403.373" y="1667.001" style="fill:#FACE6C;" width="2.658" height="23.154"/>
		<rect x="1419.271" y="1667.001" style="fill:#FACE6C;" width="2.658" height="23.154"/>
		<rect x="1435.17" y="1667.001" style="fill:#FACE6C;" width="2.658" height="23.154"/>
		<path style="fill:#FFB12A;" d="M1451.519,1759.62h-205.134c-6.172,0-11.174-5.003-11.174-11.175v-0.806
			c0-6.172,5.003-11.174,11.174-11.174h205.134c6.172,0,11.175,5.003,11.175,11.174v0.806
			C1462.693,1754.617,1457.69,1759.62,1451.519,1759.62z"/>
		<rect x="1252.231" y="1736.465" style="fill:#FACE6C;" width="2.658" height="23.155"/>
		<rect x="1268.13" y="1736.465" style="fill:#FACE6C;" width="2.658" height="23.155"/>
		<rect x="1284.028" y="1736.465" style="fill:#FACE6C;" width="2.658" height="23.155"/>
		<rect x="1299.927" y="1736.465" style="fill:#FACE6C;" width="2.658" height="23.155"/>
		<rect x="1315.825" y="1736.465" style="fill:#FACE6C;" width="2.658" height="23.155"/>
		<rect x="1331.724" y="1736.465" style="fill:#FACE6C;" width="2.658" height="23.155"/>
		<rect x="1347.623" y="1736.465" style="fill:#FACE6C;" width="2.658" height="23.155"/>
		<rect x="1363.521" y="1736.465" style="fill:#FACE6C;" width="2.658" height="23.155"/>
		<rect x="1379.42" y="1736.465" style="fill:#FACE6C;" width="2.658" height="23.155"/>
		<rect x="1395.318" y="1736.465" style="fill:#FACE6C;" width="2.658" height="23.155"/>
		<rect x="1411.217" y="1736.465" style="fill:#FACE6C;" width="2.658" height="23.155"/>
		<rect x="1427.115" y="1736.465" style="fill:#FACE6C;" width="2.658" height="23.155"/>
		<rect x="1443.014" y="1736.465" style="fill:#FACE6C;" width="2.658" height="23.155"/>
		<path style="fill:#FFB12A;" d="M1427.776,1736.465h-205.134c-6.172,0-11.174-5.003-11.174-11.175v-0.805
			c0-6.172,5.003-11.175,11.174-11.175h205.134c6.172,0,11.174,5.003,11.174,11.175v0.805
			C1438.95,1731.462,1433.947,1736.465,1427.776,1736.465z"/>
		<rect x="1228.488" y="1713.311" style="fill:#FACE6C;" width="2.658" height="23.155"/>
		<rect x="1244.386" y="1713.311" style="fill:#FACE6C;" width="2.658" height="23.155"/>
		<rect x="1260.285" y="1713.311" style="fill:#FACE6C;" width="2.658" height="23.155"/>
		<rect x="1276.184" y="1713.311" style="fill:#FACE6C;" width="2.658" height="23.155"/>
		<rect x="1292.082" y="1713.311" style="fill:#FACE6C;" width="2.658" height="23.155"/>
		<rect x="1307.981" y="1713.311" style="fill:#FACE6C;" width="2.658" height="23.155"/>
		<rect x="1323.88" y="1713.311" style="fill:#FACE6C;" width="2.658" height="23.155"/>
		<rect x="1339.778" y="1713.311" style="fill:#FACE6C;" width="2.658" height="23.155"/>
		<rect x="1355.677" y="1713.311" style="fill:#FACE6C;" width="2.658" height="23.155"/>
		<rect x="1371.575" y="1713.311" style="fill:#FACE6C;" width="2.658" height="23.155"/>
		<rect x="1387.474" y="1713.311" style="fill:#FACE6C;" width="2.658" height="23.155"/>
		<rect x="1403.373" y="1713.311" style="fill:#FACE6C;" width="2.658" height="23.155"/>
		<rect x="1419.271" y="1713.311" style="fill:#FACE6C;" width="2.658" height="23.155"/>
		<path style="fill:#FFB12A;" d="M1420.079,1667.001h-205.134c-6.172,0-11.175-5.003-11.175-11.175v-0.806
			c0-6.172,5.003-11.174,11.175-11.174h205.134c6.171,0,11.175,5.003,11.175,11.174v0.806
			C1431.253,1661.998,1426.25,1667.001,1420.079,1667.001z"/>
		<rect x="1220.791" y="1643.847" style="fill:#FACE6C;" width="2.658" height="23.155"/>
		<rect x="1236.69" y="1643.847" style="fill:#FACE6C;" width="2.658" height="23.155"/>
		<rect x="1252.588" y="1643.847" style="fill:#FACE6C;" width="2.658" height="23.155"/>
		<rect x="1268.487" y="1643.847" style="fill:#FACE6C;" width="2.658" height="23.155"/>
		<rect x="1284.386" y="1643.847" style="fill:#FACE6C;" width="2.658" height="23.155"/>
		<rect x="1300.284" y="1643.847" style="fill:#FACE6C;" width="2.658" height="23.155"/>
		<rect x="1316.183" y="1643.847" style="fill:#FACE6C;" width="2.658" height="23.155"/>
		<rect x="1332.081" y="1643.847" style="fill:#FACE6C;" width="2.658" height="23.155"/>
		<rect x="1347.98" y="1643.847" style="fill:#FACE6C;" width="2.658" height="23.155"/>
		<rect x="1363.879" y="1643.847" style="fill:#FACE6C;" width="2.658" height="23.155"/>
		<rect x="1379.777" y="1643.847" style="fill:#FACE6C;" width="2.658" height="23.155"/>
		<rect x="1395.676" y="1643.847" style="fill:#FACE6C;" width="2.658" height="23.155"/>
		<rect x="1411.574" y="1643.847" style="fill:#FACE6C;" width="2.658" height="23.155"/>
	</g>
	<g id="_x35_">
		<path style="fill:#FFB12A;" d="M1195.844,1829.084H990.709c-6.171,0-11.175-5.003-11.175-11.175v-0.805
			c0-6.172,5.003-11.175,11.175-11.175h205.134c6.172,0,11.174,5.003,11.174,11.175v0.805
			C1207.018,1824.081,1202.015,1829.084,1195.844,1829.084z"/>
		<rect x="996.556" y="1805.929" style="fill:#FACE6C;" width="2.658" height="23.155"/>
		<rect x="1012.454" y="1805.929" style="fill:#FACE6C;" width="2.658" height="23.155"/>
		<rect x="1028.353" y="1805.929" style="fill:#FACE6C;" width="2.658" height="23.155"/>
		<rect x="1044.252" y="1805.929" style="fill:#FACE6C;" width="2.658" height="23.155"/>
		<rect x="1060.15" y="1805.929" style="fill:#FACE6C;" width="2.658" height="23.155"/>
		<rect x="1076.049" y="1805.929" style="fill:#FACE6C;" width="2.658" height="23.155"/>
		<rect x="1091.948" y="1805.929" style="fill:#FACE6C;" width="2.658" height="23.155"/>
		<rect x="1107.846" y="1805.929" style="fill:#FACE6C;" width="2.658" height="23.155"/>
		<rect x="1123.745" y="1805.929" style="fill:#FACE6C;" width="2.658" height="23.155"/>
		<rect x="1139.643" y="1805.929" style="fill:#FACE6C;" width="2.658" height="23.155"/>
		<rect x="1155.542" y="1805.929" style="fill:#FACE6C;" width="2.658" height="23.155"/>
		<rect x="1171.441" y="1805.929" style="fill:#FACE6C;" width="2.658" height="23.155"/>
		<rect x="1187.339" y="1805.929" style="fill:#FACE6C;" width="2.658" height="23.155"/>
		<path style="fill:#FFB12A;" d="M1187.999,1805.929H982.865c-6.172,0-11.174-5.003-11.174-11.175v-0.806
			c0-6.172,5.003-11.174,11.174-11.174h205.134c6.172,0,11.175,5.003,11.175,11.174v0.806
			C1199.174,1800.926,1194.171,1805.929,1187.999,1805.929z"/>
		<rect x="988.711" y="1782.775" style="fill:#FACE6C;" width="2.658" height="23.154"/>
		<rect x="1004.61" y="1782.775" style="fill:#FACE6C;" width="2.658" height="23.154"/>
		<rect x="1020.509" y="1782.775" style="fill:#FACE6C;" width="2.658" height="23.154"/>
		<rect x="1036.407" y="1782.775" style="fill:#FACE6C;" width="2.658" height="23.154"/>
		<rect x="1052.306" y="1782.775" style="fill:#FACE6C;" width="2.658" height="23.154"/>
		<rect x="1068.205" y="1782.775" style="fill:#FACE6C;" width="2.658" height="23.154"/>
		<rect x="1084.103" y="1782.775" style="fill:#FACE6C;" width="2.658" height="23.154"/>
		<rect x="1100.002" y="1782.775" style="fill:#FACE6C;" width="2.658" height="23.154"/>
		<rect x="1115.901" y="1782.775" style="fill:#FACE6C;" width="2.658" height="23.154"/>
		<rect x="1131.799" y="1782.775" style="fill:#FACE6C;" width="2.658" height="23.154"/>
		<rect x="1147.698" y="1782.775" style="fill:#FACE6C;" width="2.658" height="23.154"/>
		<rect x="1163.596" y="1782.775" style="fill:#FACE6C;" width="2.658" height="23.154"/>
		<rect x="1179.495" y="1782.775" style="fill:#FACE6C;" width="2.658" height="23.154"/>
		<path style="fill:#FFB12A;" d="M1195.844,1875.393H990.709c-6.171,0-11.175-5.003-11.175-11.174v-0.806
			c0-6.171,5.003-11.174,11.175-11.174h205.134c6.172,0,11.174,5.003,11.174,11.174v0.806
			C1207.018,1870.39,1202.015,1875.393,1195.844,1875.393z"/>
		<rect x="996.556" y="1852.238" style="fill:#FACE6C;" width="2.658" height="23.154"/>
		<rect x="1012.454" y="1852.238" style="fill:#FACE6C;" width="2.658" height="23.154"/>
		<rect x="1028.353" y="1852.238" style="fill:#FACE6C;" width="2.658" height="23.154"/>
		<rect x="1044.252" y="1852.238" style="fill:#FACE6C;" width="2.658" height="23.154"/>
		<rect x="1060.15" y="1852.238" style="fill:#FACE6C;" width="2.658" height="23.154"/>
		<rect x="1076.049" y="1852.238" style="fill:#FACE6C;" width="2.658" height="23.154"/>
		<rect x="1091.948" y="1852.238" style="fill:#FACE6C;" width="2.658" height="23.154"/>
		<rect x="1107.846" y="1852.238" style="fill:#FACE6C;" width="2.658" height="23.154"/>
		<rect x="1123.745" y="1852.238" style="fill:#FACE6C;" width="2.658" height="23.154"/>
		<rect x="1139.643" y="1852.238" style="fill:#FACE6C;" width="2.658" height="23.154"/>
		<rect x="1155.542" y="1852.238" style="fill:#FACE6C;" width="2.658" height="23.154"/>
		<rect x="1171.441" y="1852.238" style="fill:#FACE6C;" width="2.658" height="23.154"/>
		<rect x="1187.339" y="1852.238" style="fill:#FACE6C;" width="2.658" height="23.154"/>
		<path style="fill:#FFB12A;" d="M1172.101,1852.238H966.967c-6.172,0-11.175-5.003-11.175-11.175v-0.806
			c0-6.172,5.003-11.174,11.175-11.174h205.134c6.172,0,11.175,5.003,11.175,11.174v0.806
			C1183.275,1847.235,1178.272,1852.238,1172.101,1852.238z"/>
		<rect x="972.813" y="1829.084" style="fill:#FACE6C;" width="2.658" height="23.155"/>
		<rect x="988.711" y="1829.084" style="fill:#FACE6C;" width="2.658" height="23.155"/>
		<rect x="1004.61" y="1829.084" style="fill:#FACE6C;" width="2.658" height="23.155"/>
		<rect x="1020.509" y="1829.084" style="fill:#FACE6C;" width="2.658" height="23.155"/>
		<rect x="1036.407" y="1829.084" style="fill:#FACE6C;" width="2.658" height="23.155"/>
		<rect x="1052.306" y="1829.084" style="fill:#FACE6C;" width="2.658" height="23.155"/>
		<rect x="1068.205" y="1829.084" style="fill:#FACE6C;" width="2.658" height="23.155"/>
		<rect x="1084.103" y="1829.084" style="fill:#FACE6C;" width="2.658" height="23.155"/>
		<rect x="1100.002" y="1829.084" style="fill:#FACE6C;" width="2.658" height="23.155"/>
		<rect x="1115.901" y="1829.084" style="fill:#FACE6C;" width="2.658" height="23.155"/>
		<rect x="1131.799" y="1829.084" style="fill:#FACE6C;" width="2.658" height="23.155"/>
		<rect x="1147.698" y="1829.084" style="fill:#FACE6C;" width="2.658" height="23.155"/>
		<rect x="1163.596" y="1829.084" style="fill:#FACE6C;" width="2.658" height="23.155"/>
		<path style="fill:#FFB12A;" d="M1164.404,1782.775H959.27c-6.172,0-11.174-5.003-11.174-11.175v-0.805
			c0-6.172,5.003-11.175,11.174-11.175h205.134c6.172,0,11.174,5.003,11.174,11.175v0.805
			C1175.578,1777.771,1170.575,1782.775,1164.404,1782.775z"/>
		<rect x="965.116" y="1759.62" style="fill:#FACE6C;" width="2.658" height="23.155"/>
		<rect x="981.015" y="1759.62" style="fill:#FACE6C;" width="2.658" height="23.155"/>
		<rect x="996.913" y="1759.62" style="fill:#FACE6C;" width="2.658" height="23.155"/>
		<rect x="1012.812" y="1759.62" style="fill:#FACE6C;" width="2.658" height="23.155"/>
		<rect x="1028.71" y="1759.62" style="fill:#FACE6C;" width="2.658" height="23.155"/>
		<rect x="1044.609" y="1759.62" style="fill:#FACE6C;" width="2.658" height="23.155"/>
		<rect x="1060.508" y="1759.62" style="fill:#FACE6C;" width="2.658" height="23.155"/>
		<rect x="1076.406" y="1759.62" style="fill:#FACE6C;" width="2.658" height="23.155"/>
		<rect x="1092.305" y="1759.62" style="fill:#FACE6C;" width="2.658" height="23.155"/>
		<rect x="1108.204" y="1759.62" style="fill:#FACE6C;" width="2.658" height="23.155"/>
		<rect x="1124.102" y="1759.62" style="fill:#FACE6C;" width="2.658" height="23.155"/>
		<rect x="1140.001" y="1759.62" style="fill:#FACE6C;" width="2.658" height="23.155"/>
		<rect x="1155.9" y="1759.62" style="fill:#FACE6C;" width="2.658" height="23.155"/>
	</g>
	<g id="_x34_">
		
			<ellipse transform="matrix(0.7071 -0.7071 0.7071 0.7071 208.1191 1130.6003)" style="fill:#FFB12A;" cx="1468.815" cy="314.078" rx="127.756" ry="127.756"/>
		<path style="fill:#FACE6C;" d="M1481.001,423.33c-56.051,6.294-108.715-31.385-119.977-87.694
			c-11.887-59.436,26.797-117.462,86.232-129.349c59.436-11.882,117.461,26.797,129.349,86.232
			c11.887,59.436-26.796,117.461-86.231,129.349C1487.247,422.494,1484.114,422.981,1481.001,423.33z M1457.174,209.716
			c-2.977,0.334-5.962,0.798-8.953,1.397c-56.776,11.355-93.728,66.783-82.372,123.559c10.757,53.785,61.069,89.779,114.607,83.769
			c2.977-0.334,5.962-0.798,8.952-1.397c56.776-11.355,93.727-66.784,82.372-123.559
			C1561.024,239.7,1510.713,203.704,1457.174,209.716z"/>
		<path style="fill:#FACE6C;" d="M1519.97,332.757c-3.828-19.138-17.414-29.359-43.176-33.525
			c-18.888-3.12-27.146-5.422-28.866-14.021c-1.385-6.923,3.744-14.365,17.074-17.031c6.338-1.268,12.066-1.478,16.958-1.19
			c7.035,0.415,13.08-4.931,13.583-11.961l0,0c0.514-7.175-4.932-13.47-12.119-13.807c-4.939-0.232-10.492-0.011-16.709,0.87
			l-0.036-0.179c-1.396-6.979-8.185-11.505-15.164-10.109l0,0c-6.979,1.396-11.505,8.185-10.109,15.164l0.481,2.404
			c-19.22,9.623-28.105,26.636-24.501,44.659c3.955,19.775,21.175,29.13,45.362,32.623c17.35,2.47,24.788,6.077,26.451,14.391
			c1.782,8.91-4.504,16.237-18.562,19.049c-7.438,1.487-15.028,1.612-21.844,0.941c-7.516-0.74-14.115,4.952-14.436,12.497l0,0
			c-0.301,7.059,5.039,13.052,12.079,13.648c6.811,0.577,14.838,0.449,22.865-0.738l0.025,0.126
			c1.396,6.979,8.185,11.505,15.164,10.109l0,0c6.979-1.396,11.505-8.185,10.109-15.164l-0.483-2.414
			C1515.887,368.647,1523.544,350.626,1519.97,332.757z"/>
	</g>
	<g id="_x33_">
		<path style="fill:#818496;" d="M1592.015,1292.832c0,0-20.863,0.173-33.858,16.478
			C1558.157,1309.31,1578.831,1314.481,1592.015,1292.832z"/>
		<path style="fill:#B74F2A;" d="M1770.494,1269.218c0,0,11.246,10.779,16.268,34.296c3.636,17.026,15.357,46.127,19.523,62.618
			c16.831,66.632-12.086,95.332-94.559,79.285c-38.961-7.581-37.168-44.383-32.137-64.827c6.58-26.743,22.679-49.6,20.923-79.74
			c0,0,10.602-24.818,26.678-27.145C1743.266,1271.379,1770.494,1269.218,1770.494,1269.218z"/>
		
			<rect x="1711.632" y="1332.623" transform="matrix(0.0367 -0.9993 0.9993 0.0367 324.7519 3032.2871)" style="fill:#F69D85;" width="47.242" height="30.137"/>
		<path style="fill:#D1836B;" d="M1741.725,1349.98c0,0-9.55,7.168-21.807,4.691l0.604-16.434L1741.725,1349.98z"/>
		<path style="fill:#F69D85;" d="M1727.222,1350.781L1727.222,1350.781c-17.109-3.685-27.991-20.541-24.306-37.65l3.463-16.08
			c3.685-17.109,20.541-27.991,37.65-24.306v0c17.109,3.685,27.991,20.541,24.306,37.65l-3.463,16.08
			C1761.187,1343.583,1744.331,1354.465,1727.222,1350.781z"/>
		<path style="fill:#F69D85;" d="M1733.436,1542.703c-27.816-1.022-68.889-10.144-56.661-47.932
			c6.28-19.406,14.203-45.665,9.845-80.991c-3.408-27.626,19.005-55.288,47.313-55.133l1.828,0.067
			c27.13,1.43,39.464,28.992,35.583,56.555c-5.002,35.526,2.384,60.63,9.146,78.792
			C1799.025,1543.85,1733.436,1542.703,1733.436,1542.703z"/>
		<path style="fill:#F69D85;" d="M1725.451,1386.468c1.356-10.188-5.803-19.546-15.991-20.902l-83.355-11.095l-45.788-70.61
			c-3.194-4.937-9.616-6.9-15.105-4.357c-6.01,2.785-8.625,9.914-5.84,15.924l39.552,85.364c2.281,4.825,6.932,8.531,12.616,9.288
			l93.01,12.38C1714.736,1403.815,1724.095,1396.656,1725.451,1386.468z"/>
		<path style="fill:#30313C;" d="M1740.855,1310.032c-0.497,2.311,0.056,4.389,1.234,4.642c1.178,0.253,2.535-1.415,3.032-3.726
			c0.496-2.311-0.056-4.389-1.234-4.642C1742.709,1306.053,1741.351,1307.721,1740.855,1310.032z"/>
		<path style="fill:#F1F3F2;" d="M1719.69,1360.842c0,0-33.124-7.054-89.782-9.421c0,0-23.29-38.583-37.893-58.589
			c0,0-12.834,15.396-33.858,16.478c0,0,24.893,74.918,45.761,83.517c20.868,8.599,80.937,17.113,80.937,17.113L1719.69,1360.842z"
			/>
		<path style="fill:#30313C;" d="M1722.15,1306.012c-0.497,2.311,0.056,4.389,1.234,4.642c1.178,0.253,2.536-1.415,3.032-3.726
			c0.497-2.311-0.056-4.389-1.234-4.642C1724.004,1302.034,1722.646,1303.702,1722.15,1306.012z"/>
		<path style="fill:#E58A76;" d="M1752.442,1321.166c-0.089,1.689-1.662,2.979-3.514,2.881c-1.851-0.098-3.279-1.547-3.19-3.236
			c0.089-1.689,1.662-2.979,3.514-2.881C1751.103,1318.028,1752.531,1319.477,1752.442,1321.166z"/>
		<path style="fill:#E58A76;" d="M1717.306,1315.023c-0.089,1.689-1.662,2.979-3.514,2.881c-1.851-0.098-3.28-1.547-3.19-3.236
			c0.089-1.689,1.662-2.979,3.514-2.881C1715.967,1311.885,1717.395,1313.333,1717.306,1315.023z"/>
		<path style="fill:#F1F3F2;" d="M1719.69,1360.842c0,0-15.153,2.8-30.673,24.628c-4.255,5.984-14.055,22.021-14.407,31.599
			c-0.383,10.414,10.023,16.714,9.33,35.572c-0.687,18.697-14.806,30.186-7.164,42.13c4.495,7.025,74.228,18.936,104.288,1.093
			c16.724-9.927-10.695-32.397-2.403-83.665c6.315-39.044-15.128-46.092-28.834-50.25c0,0-11.748,29.418-22.09,28.509
			C1717.119,1389.525,1719.69,1360.842,1719.69,1360.842z"/>
		<path style="fill:#F69D85;" d="M1776.147,1322.081c-0.979,4.545-5.457,7.435-10.001,6.457c-4.545-0.979-7.435-5.457-6.457-10.001
			c0.979-4.545,5.457-7.436,10.001-6.457C1774.235,1313.058,1777.126,1317.536,1776.147,1322.081z"/>
		<path style="fill:#B74F2A;" d="M1733.041,1264.221c0,0-13.554-7.25-25.757,4.56c-10.674,10.329-9.223,23.835-5.834,36.746
			C1701.45,1305.527,1725.725,1282.571,1733.041,1264.221z"/>
		<path style="fill:#F69D85;" d="M1712.255,1309.748c-0.979,4.545-5.457,7.435-10.001,6.457c-4.545-0.979-7.436-5.457-6.457-10.001
			c0.979-4.545,5.457-7.435,10.001-6.457C1710.343,1300.725,1713.234,1305.203,1712.255,1309.748z"/>
		<path style="fill:#D1836B;" d="M1733.826,1329.676c-0.387,2.266-2.826,3.74-5.449,3.292c-2.617-0.449-4.427-2.65-4.04-4.917
			c0.087-0.512,0.284-0.99,0.561-1.406c0.946-1.431,2.86-2.234,4.888-1.886c1.771,0.302,3.171,1.41,3.773,2.799
			C1733.849,1328.22,1733.95,1328.941,1733.826,1329.676z"/>
		<path style="fill:#FFFFFF;" d="M1733.559,1327.558c-5.985,1.546-8.66-0.907-8.66-0.907l-0.001-0.005
			c0.946-1.431,2.86-2.234,4.888-1.886C1731.557,1325.062,1732.957,1326.169,1733.559,1327.558z"/>
		<path style="fill:#AF5945;" d="M1702.822,1312.753c-0.227-0.085-0.362-0.327-0.307-0.57c0.548-2.419-0.786-3.143-2.077-3.842
			c-0.771-0.418-1.499-0.812-1.716-1.556c-0.135-0.461-0.043-0.969,0.28-1.552c1.81-3.27,5.946-2.563,6.122-2.531
			c0.268,0.046,0.445,0.304,0.397,0.572c-0.048,0.268-0.304,0.446-0.572,0.399c-0.147-0.026-3.619-0.609-5.084,2.038
			c-0.186,0.337-0.252,0.605-0.196,0.799c0.102,0.348,0.654,0.648,1.239,0.965c1.307,0.708,3.281,1.779,2.568,4.927
			c-0.06,0.266-0.324,0.432-0.59,0.372C1702.865,1312.767,1702.843,1312.761,1702.822,1312.753z"/>
		<path style="fill:#AF5945;" d="M1766.829,1325.035c-0.199-0.075-0.334-0.273-0.318-0.496c0.225-3.22,2.425-3.675,3.88-3.976
			c0.652-0.135,1.267-0.262,1.465-0.567c0.11-0.169,0.124-0.445,0.043-0.821c-0.643-2.971-4.243-3.414-4.28-3.418
			c-0.269-0.031-0.465-0.275-0.434-0.546c0.031-0.271,0.275-0.465,0.546-0.434c0.177,0.02,4.341,0.536,5.132,4.189
			c0.141,0.652,0.082,1.164-0.18,1.567c-0.422,0.649-1.233,0.816-2.092,0.994c-1.437,0.298-2.923,0.605-3.097,3.08
			c-0.019,0.272-0.255,0.476-0.526,0.458C1766.919,1325.061,1766.872,1325.051,1766.829,1325.035z"/>
		<path style="fill:#B74F2A;" d="M1720.323,1271.564c0,0,3.682,18.107,20.683,21.314c19.965,3.766,24.033,30.619,24.033,30.619
			s14.731-17.326,13.651-31.644C1776.218,1259.094,1744.949,1245.973,1720.323,1271.564z"/>
		<path style="fill:#AF5945;" d="M1721.144,1297.116c-0.101-0.038-0.196-0.097-0.28-0.176c-0.33-0.315-0.343-0.837-0.029-1.167
			c0.096-0.102,2.406-2.495,5.447-2.395c1.801,0.059,3.443,0.964,4.88,2.689c0.292,0.351,0.245,0.873-0.107,1.165
			c-0.351,0.292-0.873,0.245-1.165-0.106c-1.118-1.343-2.347-2.047-3.652-2.094c-2.293-0.081-4.186,1.863-4.205,1.882
			C1721.797,1297.16,1721.444,1297.229,1721.144,1297.116z"/>
		<path style="fill:#AF5945;" d="M1740.044,1299.577c-0.137-0.052-0.262-0.14-0.359-0.264c-0.28-0.359-0.22-0.876,0.138-1.158
			c0.089-0.071,2.222-1.722,4.877-1.217c1.885,0.359,3.506,1.686,4.818,3.944c0.229,0.395,0.095,0.902-0.3,1.131
			c-0.395,0.229-0.901,0.095-1.131-0.299c-1.057-1.819-2.298-2.879-3.682-3.147c-1.907-0.372-3.545,0.877-3.561,0.889
			C1740.609,1299.639,1740.305,1299.675,1740.044,1299.577z"/>
		<path style="fill:#AF5945;" d="M1730.254,1321.565c-0.024-0.009-0.047-0.02-0.07-0.032c-0.403-0.228-3.916-2.283-3.133-4.251
			c0.662-1.662,5.58-8.51,5.788-8.801c0.159-0.222,0.467-0.271,0.688-0.112c0.221,0.159,0.271,0.467,0.113,0.688
			c-1.404,1.953-5.161,7.304-5.672,8.59c-0.368,0.926,1.661,2.44,2.701,3.028c0.237,0.134,0.321,0.435,0.187,0.672
			C1730.734,1321.56,1730.477,1321.649,1730.254,1321.565z"/>
		<path style="fill:#DBBFB2;" d="M1692.154,1439.545c-7.607-1.52-12.081-5.572-12.32-5.793c-0.2-0.185-0.213-0.496-0.028-0.696
			c0.185-0.2,0.498-0.212,0.697-0.028c0.073,0.067,7.422,6.702,19.093,6.055c0.268-0.016,0.504,0.193,0.519,0.465
			c0.015,0.272-0.193,0.504-0.465,0.519C1696.9,1440.22,1694.391,1439.992,1692.154,1439.545z"/>
		<path style="fill:#818496;" d="M1733.121,1441.534c-0.832-0.166-1.283-0.29-1.307-0.297c-0.262-0.074-0.415-0.346-0.34-0.608
			c0.074-0.262,0.347-0.413,0.608-0.341c0.124,0.036,12.702,3.463,29.892-1.562c0.263-0.076,0.535,0.074,0.612,0.335
			c0.077,0.261-0.073,0.535-0.334,0.612C1747.984,1443.843,1736.814,1442.272,1733.121,1441.534z"/>
		<path style="fill:#F69D85;" d="M1580.526,1287.668c0,0-7.028-11.502-17.554-15.123c-10.526-3.621-15.484-2.66-19.465-0.111
			c-3.981,2.549,8.757,18.174,15.591,21.027C1565.933,1296.314,1574.931,1296.811,1580.526,1287.668z"/>
		<path style="fill:#F69D85;" d="M1581.128,1285.172l-0.327-0.658c-0.105-0.211-0.184-0.352-0.266-0.501
			c-0.083-0.154-0.165-0.299-0.246-0.437c-0.163-0.282-0.324-0.567-0.49-0.836c-0.326-0.55-0.664-1.081-1.003-1.609
			c-0.338-0.53-0.694-1.042-1.039-1.561l-1.08-1.522c-1.466-2.005-3.046-3.918-4.726-5.74c-1.667-1.831-3.482-3.539-5.393-5.129
			l-1.45-1.172l-1.517-1.096l-0.758-0.543l-0.794-0.501l-1.584-0.992c-1.189-0.746-2.777-0.536-3.725,0.557
			c-1.048,1.208-0.919,3.038,0.29,4.086l0.173,0.15l1.216,1.055l0.606,0.523l0.575,0.567l1.145,1.128l0.744,0.821
			c-0.428-0.209-0.858-0.432-1.288-0.654c-0.927-0.488-1.849-1.005-2.765-1.539c-1.831-1.069-3.616-2.237-5.35-3.476
			c-0.878-0.609-1.711-1.268-2.563-1.915l-1.237-1.012l-0.62-0.509l-0.597-0.53c-1.629-1.388-3.107-2.915-4.569-4.478l-0.086-0.092
			c-0.863-0.925-2.291-1.127-3.391-0.416c-1.235,0.798-1.589,2.447-0.79,3.682c1.28,1.98,2.617,3.95,4.118,5.775l0.552,0.697
			l0.575,0.674l0.405,0.471c-0.13-0.09-0.26-0.18-0.391-0.271l-1.301-0.963l-0.651-0.484l-0.63-0.506
			c-1.716-1.323-3.29-2.79-4.849-4.292l-0.088-0.085c-0.912-0.88-2.351-1.007-3.412-0.237c-1.19,0.864-1.455,2.529-0.591,3.719
			c1.397,1.925,2.849,3.837,4.454,5.597l0.565,0.642l-0.447-0.281l-1.337-0.945l-0.672-0.475l-0.635-0.512l-1.278-1.03l-0.162-0.131
			c-0.989-0.798-2.438-0.792-3.424,0.076c-1.101,0.97-1.207,2.649-0.237,3.75l1.241,1.408l0.626,0.705l0.661,0.663l1.333,1.326
			l1.396,1.251c0.748,0.65,1.517,1.278,2.296,1.892l-1.158-0.753l-0.821-0.535l-0.77-0.596l-1.552-1.195l-0.199-0.153
			c-1.029-0.794-2.511-0.731-3.469,0.202c-1.05,1.022-1.073,2.702-0.051,3.752l1.572,1.616l0.793,0.809l0.846,0.744l1.708,1.486
			l1.803,1.359c0.304,0.222,0.599,0.463,0.912,0.671l0.943,0.618c0.634,0.403,1.254,0.845,1.906,1.216l1.961,1.12
			c0.656,0.375,1.337,0.685,2.007,1.03c2.7,1.327,5.495,2.459,8.365,3.382l2.168,0.654c0.732,0.191,1.458,0.404,2.201,0.576
			c0.74,0.179,1.484,0.351,2.244,0.5c0.374,0.081,0.767,0.147,1.154,0.217c0.191,0.036,0.392,0.068,0.6,0.099
			c0.203,0.031,0.398,0.063,0.68,0.094l0.653,0.072c0.358,0.037,0.725,0.036,1.097-0.006c2.787-0.316,4.79-2.831,4.474-5.618
			c-0.316-2.787-2.831-4.79-5.618-4.474c-0.063,0.007-0.199,0.006-0.334,0.005c0.205-0.504,0.337-1.047,0.371-1.62
			c0.034-0.576-0.033-1.133-0.179-1.66c0.075-0.169,0.141-0.343,0.198-0.523c2.361,0.244,4.646-1.196,5.382-3.549
			c0.064-0.203,0.11-0.408,0.147-0.612c0.969,1.502,1.873,3.047,2.694,4.631l0.721,1.443c0.224,0.487,0.461,0.968,0.674,1.455
			c0.215,0.486,0.428,0.972,0.622,1.455c0.103,0.243,0.191,0.479,0.283,0.717c0.048,0.121,0.09,0.236,0.128,0.345
			c0.04,0.112,0.085,0.233,0.096,0.287c0.088,0.394,0.229,0.809,0.416,1.186c1.252,2.519,4.309,3.546,6.828,2.293
			C1581.353,1290.748,1582.38,1287.691,1581.128,1285.172z"/>
		<path style="fill:#AF5945;" d="M1547.76,1287.24c-0.032-0.006-0.063-0.016-0.095-0.029c-6.25-2.62-11.379-7.22-11.431-7.266
			c-0.202-0.182-0.218-0.494-0.035-0.696c0.183-0.201,0.494-0.217,0.696-0.035c0.05,0.045,5.06,4.536,11.151,7.089
			c0.251,0.105,0.369,0.394,0.264,0.645C1548.218,1287.167,1547.985,1287.285,1547.76,1287.24z"/>
		<path style="fill:#AF5945;" d="M1548.621,1280.854c-0.059-0.012-0.118-0.035-0.171-0.07c-6.761-4.378-11.368-9.04-11.413-9.087
			c-0.191-0.194-0.188-0.506,0.006-0.697c0.195-0.191,0.506-0.187,0.697,0.006c0.045,0.046,4.581,4.634,11.245,8.95
			c0.229,0.148,0.294,0.453,0.146,0.682C1549.018,1280.813,1548.813,1280.893,1548.621,1280.854z"/>
		<path style="fill:#AF5945;" d="M1553.292,1276.803c-0.062-0.012-0.122-0.037-0.178-0.074c-4.186-2.806-8.751-7.704-8.944-7.912
			c-0.185-0.199-0.173-0.511,0.026-0.697c0.2-0.185,0.51-0.175,0.697,0.026c0.046,0.05,4.68,5.022,8.77,7.763
			c0.226,0.152,0.287,0.458,0.135,0.684C1553.683,1276.764,1553.481,1276.841,1553.292,1276.803z"/>
		<path style="fill:#AF5945;" d="M1558.641,1286.01c-0.148-0.029-0.28-0.126-0.349-0.273c-0.116-0.246-0.012-0.54,0.235-0.656
			c2.099-0.993,4.822-1.152,6.282-1.157c-2.091-3.1-2.786-7.14-2.816-7.326c-0.045-0.268,0.136-0.523,0.405-0.567
			c0.267-0.045,0.522,0.136,0.568,0.405c0.008,0.047,0.819,4.747,3.221,7.693c0.124,0.152,0.146,0.363,0.056,0.537
			s-0.274,0.279-0.47,0.266c-0.04-0.003-4.107-0.245-6.823,1.04C1558.848,1286.019,1558.741,1286.03,1558.641,1286.01z"/>
		<path style="fill:#818496;" d="M1676.405,1409.17c-0.039-0.008-0.079-0.021-0.116-0.039c-0.246-0.117-0.35-0.412-0.232-0.657
			c0.051-0.107,5.201-10.771,14.239-20.707c0.183-0.201,0.496-0.216,0.697-0.033c0.201,0.183,0.216,0.495,0.033,0.696
			c-8.942,9.831-14.029,20.364-14.079,20.469C1676.846,1409.107,1676.62,1409.214,1676.405,1409.17z"/>
		<path style="fill:#818496;" d="M1561.193,1318.693c-0.215-0.043-0.382-0.227-0.395-0.456c-0.015-0.272,0.193-0.505,0.465-0.52
			c0.234-0.013,23.572-1.494,35.69-17.631c0.163-0.217,0.471-0.262,0.691-0.098c0.218,0.164,0.261,0.473,0.098,0.69
			c-12.398,16.51-36.185,18.01-36.424,18.024C1561.275,1318.704,1561.233,1318.701,1561.193,1318.693z"/>
		<path style="fill:#F69D85;" d="M1720.113,1541.952l29.464,142.391l0.669,3.232c0.125,0.602,0.32,1.239,0.534,1.795l51.915,132.09
			c3.751,9.545,14.53,14.241,24.074,10.49c9.545-3.751,14.243-14.524,10.492-24.068l-51.869-132.108l3.114-140.369
			c0.251-19.083-14.786-27.693-33.869-27.944c-19.083-0.251-34.987,7.953-35.238,27.036
			C1719.367,1536.989,1719.643,1539.603,1720.113,1541.952z"/>
		<path style="fill:#F69D85;" d="M1677.057,1538.352l-5.632,145.298l-0.128,3.298c-0.024,0.614,0.013,1.28,0.087,1.87
			l18.638,140.697c1.347,10.167,10.68,17.316,20.847,15.97s17.317-10.674,15.97-20.84l-18.589-140.703l36.768-135.504
			c4.831-18.463-6.22-37.347-24.683-42.178c-18.463-4.831-37.347,6.22-42.178,24.683
			C1677.525,1533.355,1677.165,1535.958,1677.057,1538.352z"/>
		<path style="fill:#30313C;" d="M1687.489,1499.699c0,0-28.702,59.509-39.216,160.563c-4.703,45.201,16.541,145.984,16.541,145.984
			s42.214,11.268,78.387-2.993l-16.718-116.574c0,0,5.952-65.471,17.909-98.068c11.957-32.597,8.803-85.561,8.803-85.561
			C1722.185,1505.65,1687.489,1499.699,1687.489,1499.699z"/>
		<path style="fill:#404D7F;" d="M1656.161,1874.445l44.778-0.552l9.391-20.115l4.059,19.944l12.932-0.157
			c11.789-24.734-0.866-55.606-0.866-55.606s-18.719,3.817-41.215,0.697l0.527,20.066l-33.394,24.329
			C1647.41,1866.667,1650.022,1874.521,1656.161,1874.445z"/>
		<path style="fill:#606A97;" d="M1719.381,1846.086c-1.943-0.8-2.873-3.032-2.073-4.975l0,0c0.388-0.942,1.119-1.676,2.058-2.067
			c0.939-0.391,1.976-0.394,2.917-0.006c0.941,0.387,1.676,1.118,2.068,2.058c0.391,0.94,0.394,1.975,0.006,2.917
			c-0.388,0.941-1.119,1.675-2.058,2.067c-0.464,0.193-0.951,0.292-1.439,0.295
			C1720.359,1846.379,1719.858,1846.282,1719.381,1846.086z M1719.745,1839.952c-0.697,0.291-1.24,0.835-1.527,1.534
			c-0.594,1.442,0.097,3.098,1.539,3.691c0.698,0.288,1.467,0.286,2.164-0.005c0.697-0.291,1.24-0.836,1.527-1.533
			c0.288-0.698,0.286-1.467-0.005-2.164c-0.29-0.697-0.835-1.24-1.534-1.527c-0.354-0.146-0.725-0.217-1.096-0.214
			C1720.45,1839.735,1720.089,1839.808,1719.745,1839.952z"/>
		<path style="fill:#30313C;" d="M1710.585,1502.517c0,0-3.193,64.072,10.896,164.69c6.301,45.006,51.151,137.727,51.151,137.727
			s43.685,0.79,75.369-21.75l-44.252-109.137c0,0,2.756-64.5,2.497-100.442c-0.389-53.97-27.75-77.505-27.75-77.505
			C1749.02,1506.079,1710.585,1502.517,1710.585,1502.517z"/>
		<path style="fill:#404D7F;" d="M1780.628,1873.213l43.332-11.301l4.279-21.783l8.734,18.384l12.515-3.261
			c5.497-26.843-14.208-53.767-14.208-53.767s-17.253,8.205-39.839,10.585l5.336,19.35l-26.566,31.644
			C1770.264,1867.766,1774.687,1874.762,1780.628,1873.213z"/>
		<path style="fill:#606A97;" d="M1835.177,1830.487c-2.078-0.31-3.518-2.252-3.208-4.331l0,0c0.15-1.007,0.683-1.896,1.501-2.501
			c0.818-0.606,1.823-0.857,2.83-0.707c1.007,0.149,1.895,0.682,2.502,1.501c0.606,0.818,0.857,1.823,0.707,2.83
			c-0.15,1.007-0.683,1.895-1.501,2.502c-0.404,0.299-0.853,0.512-1.326,0.632
			C1836.196,1830.536,1835.686,1830.563,1835.177,1830.487z M1834.055,1824.445c-0.607,0.45-1.002,1.108-1.114,1.855
			c-0.229,1.542,0.839,2.984,2.381,3.213c0.747,0.112,1.493-0.075,2.099-0.525c0.607-0.45,1.002-1.109,1.114-1.856
			c0.111-0.747-0.075-1.493-0.525-2.1c-0.449-0.607-1.109-1.002-1.856-1.113c-0.378-0.056-0.756-0.036-1.116,0.056
			C1834.688,1824.065,1834.354,1824.223,1834.055,1824.445z"/>
		<path style="fill:#3E8EDD;" d="M1729.075,1422.502l-36.153,0.353l0,0c-0.027-2.831,2.245-5.148,5.075-5.175l25.902-0.253
			C1726.731,1417.399,1729.048,1419.672,1729.075,1422.502L1729.075,1422.502z"/>
		<path style="fill:#606A97;" d="M1742.236,1521.598l-58.856,0.574c-5.121,0.05-9.313-4.061-9.362-9.182l-0.788-80.877
			c-0.05-5.121,4.061-9.313,9.181-9.363l58.857-0.574c5.121-0.05,9.313,4.061,9.363,9.182l0.788,80.877
			C1751.468,1517.357,1747.357,1521.548,1742.236,1521.598z"/>
		<path style="fill:#F69D85;" d="M1823.105,1471.845l-27.633-74.361c-3.58-9.634-14.292-14.542-23.926-10.962
			c-9.634,3.58-14.542,14.292-10.962,23.926l19.427,52.279l-72.285,12.652c-5.813,1.011-10.135,6.183-9.916,12.245
			c0.24,6.618,5.799,11.79,12.417,11.55l96.946-3.505c1.814-0.074,3.725-0.429,5.519-1.096
			C1821.844,1491.173,1826.506,1480.997,1823.105,1471.845z"/>
		<path style="fill:#F69D85;" d="M1723.086,1479.502c0,0-12.246-5.632-23.004-2.771c-10.757,2.861-14.338,6.422-16.223,10.757
			c-1.885,4.335,17.4,10.208,24.665,8.767C1715.79,1494.814,1723.537,1490.211,1723.086,1479.502z"/>
		<path style="fill:#F69D85;" d="M1716.142,1485.189c-5.606-4.033-12.083-6.979-18.811-8.544c-0.878-0.16-2.283-0.462-3.167-0.545
			c-2.083-0.006-4.697-0.895-4.344-3.458c0.567-3.763,5.713-2.379,8.391-2.532c8.347,0.644,16.614,2.995,23.983,6.983
			C1728.623,1480.949,1721.67,1490.271,1716.142,1485.189z"/>
		<path style="fill:#F69D85;" d="M1700.853,1486.673c-9.539-0.142-19.105-2.057-27.85-5.88c-2.941-1.182-1.394-5.833,1.651-5.042
			c2.377,0.572,4.773,1.025,7.202,1.308c5.999,0.633,12.132,0.601,18.081-0.388
			C1707.714,1474.697,1708.88,1487.081,1700.853,1486.673z"/>
		<path style="fill:#F69D85;" d="M1698.639,1492.6c-9.61,0.249-19.32-1.21-28.33-4.582c-3.003-1.023-1.703-5.755,1.382-5.122
			c2.694,0.496,5.415,0.871,8.154,0.99c5.837,0.284,11.76-0.066,17.481-1.244C1704.938,1480.465,1706.57,1492.63,1698.639,1492.6z"
			/>
		<path style="fill:#F69D85;" d="M1701.298,1495.561c-9.768,2.271-20.198,2.522-29.894-0.218c-3.207-0.787-2.111-5.787,1.114-5.199
			c0.583,0.053,1.896,0.163,2.448,0.214c7.848,0.326,15.805-1.267,23.039-4.285
			C1705.083,1482.278,1709.198,1494.026,1701.298,1495.561z"/>
		<path style="fill:#F69D85;" d="M1710.938,1497.901c-8.245,3.849-17.446,5.876-26.546,5.565c-2.873-0.079-6.141-0.591-8.933-1.248
			c-3.156-0.595-2.463-5.53,0.719-5.245c0.045,0.005,2.092,0.135,2.204,0.143c7.804,0.43,15.629-1.728,22.611-5.116
			c1.656-0.838,3.34-1.716,4.86-2.762C1711.983,1484.385,1718.145,1494.812,1710.938,1497.901z"/>
		<path style="fill:#AF5945;" d="M1681.982,1497.772c-0.255-0.051-0.429-0.293-0.391-0.554c0.039-0.27,0.289-0.456,0.558-0.417
			c0.067,0.009,6.729,0.945,13.209-0.33c0.266-0.052,0.526,0.121,0.579,0.388c0.052,0.267-0.121,0.526-0.389,0.579
			c-6.649,1.309-13.472,0.349-13.54,0.339C1681.999,1497.775,1681.991,1497.774,1681.982,1497.772z"/>
		<path style="fill:#AF5945;" d="M1678.099,1490.487c-0.013-0.003-0.02-0.004-0.022-0.005c-0.267-0.055-0.438-0.316-0.384-0.583
			c0.055-0.266,0.314-0.437,0.58-0.384c0.003,0,0.006,0.001,0.023,0.005c0.398,0.08,6.589,1.287,14.305,1.159
			c0.271-0.005,0.497,0.213,0.501,0.485c0.005,0.272-0.212,0.497-0.485,0.501
			C1684.803,1491.796,1678.523,1490.572,1678.099,1490.487z"/>
		<path style="fill:#AF5945;" d="M1684.25,1484.513c-1.072-0.214-1.77-0.377-1.855-0.397c-0.265-0.063-0.429-0.328-0.367-0.593
			c0.062-0.266,0.341-0.43,0.593-0.367c0.067,0.016,6.686,1.561,11.608,1.557c0.271,0,0.493,0.22,0.493,0.493
			c0,0.272-0.22,0.493-0.492,0.493C1690.766,1485.701,1686.604,1484.983,1684.25,1484.513z"/>
		<path style="fill:#F1F3F2;" d="M1749.827,1361.949c0,0,37.442-0.682,56.339,39.41s26.372,73.662,19.586,89.205
			c-8.575,19.641-96.188,17.944-96.188,17.944s-10-14.817-4.71-40.216c0,0,28.638-6.181,47.987-7.709
			C1772.842,1460.584,1746.023,1392.202,1749.827,1361.949z"/>
		<path style="fill:#818496;" d="M1750.845,1463.884c-0.201-0.04-0.364-0.204-0.392-0.419c-0.036-0.27,0.154-0.518,0.424-0.554
			c6.971-0.928,18.429-2.378,21.258-2.736c-6.569-15.758-15.907-53.006-16.001-53.385c-0.066-0.264,0.094-0.532,0.359-0.598
			c0.264-0.066,0.532,0.095,0.598,0.359c0.096,0.383,9.657,38.523,16.206,53.838c0.061,0.142,0.051,0.305-0.026,0.439
			c-0.077,0.134-0.212,0.224-0.366,0.244c-0.139,0.018-13.942,1.757-21.897,2.816
			C1750.952,1463.896,1750.897,1463.894,1750.845,1463.884z"/>
		<path style="fill:#818496;" d="M1739.626,1509.001c-0.141-0.028-0.268-0.117-0.34-0.253c-9.121-17.302-4.851-42.332-4.806-42.583
			c0.047-0.268,0.302-0.447,0.571-0.4c0.263,0.053,0.447,0.303,0.4,0.571c-0.043,0.248-4.254,24.951,4.708,41.952
			c0.127,0.241,0.035,0.539-0.206,0.666C1739.848,1509.009,1739.733,1509.023,1739.626,1509.001z"/>
		<path style="fill:#818496;" d="M1726.03,1396.098c-2.703-0.54-4.975-2.01-6.764-4.379c-7.274-9.628-4.402-30.856-4.276-31.755
			c0.038-0.27,0.287-0.458,0.556-0.42c0.265,0.039,0.457,0.287,0.42,0.557c-0.03,0.216-2.941,21.723,4.087,31.025
			c1.774,2.349,4.062,3.734,6.797,4.111c15.398,2.136,26.821-32.792,26.934-33.145c0.083-0.259,0.357-0.404,0.62-0.318
			c0.259,0.083,0.402,0.361,0.318,0.62c-0.474,1.474-11.794,36.069-28.008,33.82
			C1726.484,1396.182,1726.255,1396.143,1726.03,1396.098z"/>
		<path style="fill:#AF5945;" d="M1727.197,1333.157c-2.271-0.853-3.72-2.995-3.345-5.189c0.098-0.571,0.312-1.109,0.637-1.597
			c1.089-1.649,3.202-2.473,5.381-2.098c1.868,0.318,3.454,1.502,4.143,3.089c0.332,0.759,0.437,1.588,0.3,2.396
			c0,0,0,0.001,0,0.001c-0.212,1.24-0.964,2.306-2.117,3.003c-1.13,0.683-2.516,0.929-3.901,0.692
			C1727.912,1333.388,1727.544,1333.288,1727.197,1333.157z M1730.62,1325.493c-0.293-0.11-0.6-0.193-0.917-0.248
			c-1.767-0.304-3.532,0.368-4.393,1.672c-0.249,0.374-0.412,0.783-0.486,1.217c-0.341,1.995,1.292,3.948,3.637,4.348
			c1.151,0.197,2.297-0.003,3.224-0.564c0.904-0.546,1.492-1.371,1.655-2.324c0.105-0.627,0.027-1.245-0.232-1.838
			C1732.665,1326.734,1731.751,1325.918,1730.62,1325.493z"/>
		<path style="fill:#64656E;" d="M1727.997,1695.379c-0.222,0-0.43-0.138-0.509-0.36c-0.162-0.459-16.227-46.82-16.477-129.437
			c-0.001-0.298,0.24-0.54,0.538-0.541c0.001,0,0.002,0,0.002,0c0.297,0,0.539,0.24,0.539,0.538
			c0.249,82.414,16.254,128.624,16.415,129.081c0.099,0.281-0.048,0.589-0.329,0.688
			C1728.117,1695.369,1728.057,1695.379,1727.997,1695.379z"/>
		<path style="fill:#64656E;" d="M1696.76,1796.828c-20.259,0-34.497-3.357-34.729-3.414c-0.289-0.07-0.467-0.362-0.397-0.651
			c0.07-0.29,0.362-0.468,0.651-0.397c0.38,0.091,38.501,9.072,78.907-2.599c0.286-0.081,0.585,0.083,0.668,0.369
			c0.083,0.286-0.082,0.585-0.369,0.668C1725.505,1795.422,1709.87,1796.828,1696.76,1796.828z"/>
		<path style="fill:#64656E;" d="M1767.114,1791.342c-0.701,0-1.088-0.011-1.126-0.012c-0.298-0.01-0.531-0.26-0.521-0.558
			c0.01-0.298,0.262-0.517,0.557-0.521c0.409,0.015,41.426,1.111,75.837-21.918c0.247-0.166,0.582-0.1,0.749,0.148
			c0.165,0.247,0.099,0.582-0.149,0.748C1810.963,1790.311,1773.991,1791.342,1767.114,1791.342z"/>
		<path style="fill:#64656E;" d="M1693.99,1785.177c-18.809,0-33.65-2.371-33.912-2.413c-0.294-0.048-0.493-0.326-0.445-0.62
			c0.049-0.294,0.328-0.493,0.62-0.445c0.461,0.076,46.498,7.425,79.186-3.96c0.281-0.098,0.589,0.05,0.687,0.332
			c0.098,0.282-0.051,0.589-0.332,0.687C1725.43,1783.76,1708.525,1785.177,1693.99,1785.177z"/>
		<path style="fill:#64656E;" d="M1761.024,1780.333c-0.288,0-0.527-0.227-0.539-0.517c-0.012-0.298,0.219-0.549,0.517-0.561
			c0.514-0.022,51.639-2.364,75.779-23.279c0.226-0.195,0.566-0.171,0.761,0.054c0.195,0.225,0.171,0.566-0.054,0.761
			c-24.426,21.164-75.924,23.521-76.441,23.542C1761.039,1780.333,1761.031,1780.333,1761.024,1780.333z"/>
	</g>
	<g id="_x32__2_">
		<path style="fill:#818496;" d="M895.252,1335.586c0,0,17.3,4.036,31.775,24.701
			C927.027,1360.288,901.18,1362.321,895.252,1335.586z"/>
		<path style="fill:#F69D85;" d="M924.043,1330.672c-5.551-4.75-13.902-4.1-18.651,1.451l-55.182,64.492l-69.634-57.557
			c-0.425-0.349-0.894-0.704-1.357-1.021c-8.49-5.802-20.077-3.624-25.88,4.867c-5.803,8.49-3.624,20.077,4.867,25.88l85.337,58.322
			l0.663,0.454c5.79,3.929,13.73,2.897,18.301-2.593l67.718-81.329C930.226,1343.637,929.547,1335.381,924.043,1330.672z"/>
		<path style="fill:#F1F3F2;" d="M759.113,1330.53c0,0,30.886-9.304,87.205,53.306l48.934-48.25c0,0,7.087,17.932,31.775,24.701
			c0,0-40.29,79.943-72.306,84.084c-38.462,4.975-85.249-33.567-85.249-33.567L759.113,1330.53z"/>
		<path style="fill:#F69D85;" d="M669.057,1690.537c-12.597,55.861-20.599,98.917-36.098,154.013
			c-10.394,22.09-55.152,23.39-48.701,0.356c12.005-54.115,29.605-109.284,43.38-162.97
			C627.639,1681.936,669.526,1688.667,669.057,1690.537z"/>
		<path style="fill:#F69D85;" d="M780.123,1690.632l-15.529,153.731c-10.394,22.09-55.152,23.39-48.701,0.356l19.517-162.683
			L780.123,1690.632z"/>
		<path style="fill:#606A97;" d="M713.267,1867.165c0.265,0.997,0.706,1.916,1.288,2.724c1.445,2.007,3.761,3.319,6.385,3.321
			l60.012-0.057c2.988,0,5.253-1.728,6.386-4.032c0.349-0.7,0.591-1.458,0.713-2.239c0.372-2.343-0.314-4.881-2.377-6.745
			l-21.08-15.774c-27.758,4.271-48.42-2.603-48.42-2.603l-0.628,2.969c-1.383,6.543-2.235,13.187-2.55,19.866l0,0
			C712.954,1865.488,713.048,1866.35,713.267,1867.165z"/>
		<path style="fill:#404D7F;" d="M713.267,1867.165c0.916,3.471,3.993,6.041,7.674,6.045l60.012-0.057
			c3.896-0.003,6.572-2.936,7.098-6.271L713.267,1867.165z"/>
		<path style="fill:#30313C;" d="M715.968,1541.182l-3.034,286.78c0,0,27.248,11.48,64.538,5.462l33.381-292.376L715.968,1541.182z"
			/>
		<path style="fill:#606A97;" d="M581.632,1867.352c0.265,0.997,0.706,1.916,1.288,2.724c1.445,2.007,3.761,3.319,6.385,3.321
			l60.012-0.057c2.987,0,5.253-1.728,6.386-4.032c0.349-0.7,0.591-1.458,0.713-2.238c0.372-2.343-0.314-4.881-2.377-6.745
			l-21.08-15.774c-27.757,4.271-48.42-2.603-48.42-2.603l-0.628,2.969c-1.383,6.543-2.235,13.186-2.55,19.866l0,0
			C581.319,1865.675,581.414,1866.537,581.632,1867.352z"/>
		<path style="fill:#404D7F;" d="M581.632,1867.352c0.916,3.47,3.993,6.041,7.674,6.044l60.012-0.057
			c3.896-0.003,6.571-2.935,7.098-6.27L581.632,1867.352z"/>
		<path style="fill:#30313C;" d="M654.857,1541.269c0,0-60.99,222.939-73.558,286.88c0,0,27.248,11.48,64.539,5.462l99.892-292.47
			L654.857,1541.269z"/>
		
			<rect x="728.801" y="1293.73" transform="matrix(1 -0.0014 0.0014 1 -1.8665 1.0557)" style="fill:#F69D85;" width="30.292" height="47.485"/>
		<path style="fill:#D1836B;" d="M733.982,1317.109c12.761,6.443,25.119,5.481,25.119,5.481l-0.013-9.198L733.982,1317.109z"/>
		<path style="fill:#2A3047;" d="M775.63,1270.237c0,0,4.566-8.129,2.215-16.86l-9.659,1.798
			C768.185,1255.176,773.595,1262.024,775.63,1270.237z"/>
		<path style="fill:#F69D85;" d="M748.951,1319.056L748.951,1319.056c17.486-1.922,30.103-17.654,28.182-35.14l-1.806-16.435
			c-1.921-17.486-17.654-30.104-35.14-28.182v0c-17.486,1.921-30.103,17.654-28.182,35.14l1.806,16.435
			C715.732,1308.36,731.465,1320.978,748.951,1319.056z"/>
		<path style="fill:#F69D85;" d="M702.179,1285.738c0.51,4.645,4.689,7.996,9.334,7.486c4.645-0.51,7.997-4.689,7.486-9.334
			c-0.51-4.645-4.69-7.997-9.335-7.486C705.02,1276.914,701.668,1281.093,702.179,1285.738z"/>
		<path style="fill:#F69D85;" d="M768.143,1279.572c0.51,4.645,4.69,7.997,9.335,7.486c4.645-0.51,7.996-4.69,7.486-9.334
			c-0.51-4.645-4.69-7.997-9.335-7.486C770.985,1270.748,767.633,1274.927,768.143,1279.572z"/>
		<path style="fill:#F69D85;" d="M743.298,1507.415l1.838-0.003c27.979-0.04,50.628-22.753,50.588-50.731l-0.11-77.569
			c-0.04-27.979-26.258-49.528-50.732-50.588l-1.838,0.002c-23.363,0.033-50.628,22.753-50.588,50.732l0.11,77.569
			C692.607,1484.806,715.32,1507.454,743.298,1507.415z"/>
		<path style="fill:#30313C;" d="M739.519,1276.909c0.258,2.362-0.508,4.383-1.712,4.514c-1.204,0.132-2.39-1.676-2.648-4.038
			c-0.258-2.361,0.508-4.383,1.712-4.514C738.075,1272.74,739.261,1274.547,739.519,1276.909z"/>
		<path style="fill:#30313C;" d="M758.636,1274.817c0.258,2.362-0.508,4.383-1.712,4.515c-1.204,0.132-2.389-1.676-2.648-4.037
			c-0.258-2.362,0.508-4.383,1.712-4.515C757.192,1270.648,758.377,1272.456,758.636,1274.817z"/>
		<path style="fill:#2A3047;" d="M791.112,1245.046c-6.546-10.967-18.026-6.853-25.732-14.03
			c-5.673-5.284-23.313-12.92-34.992-7.875c-9.237,3.989-12.642,11.615-13.823,17.781c-4.653,2.222-9.632,6.499-11.044,14.729
			c-1.666,9.709,6.711,20.862,6.711,20.862s9.513-3.955,13.367-14.283c2.042-5.472,2.85-9.794,2.989-13.172
			c4.897-0.338,10.32-0.478,14.438,0.048c14.631,1.87,15.259,11.529,30.068,14.295
			C790.242,1266.604,795.651,1252.65,791.112,1245.046z"/>
		<path style="fill:#D1836B;" d="M726.786,1286.847c-0.085,1.698,1.355,3.15,3.216,3.243c1.861,0.093,3.438-1.208,3.523-2.906
			c0.085-1.698-1.355-3.15-3.216-3.243C728.448,1283.848,726.871,1285.149,726.786,1286.847z"/>
		<path style="fill:#D1836B;" d="M762.55,1284.325c-0.085,1.698,1.355,3.15,3.216,3.243c1.861,0.093,3.438-1.208,3.523-2.907
			c0.085-1.698-1.355-3.15-3.216-3.243C764.212,1281.326,762.635,1282.627,762.55,1284.325z"/>
		<path style="fill:#AF5945;" d="M776.866,1283.634c-0.24-0.012-0.443-0.198-0.468-0.444c-0.331-3.227,1.769-4.057,3.159-4.605
			c0.622-0.246,1.21-0.478,1.353-0.813c0.08-0.186,0.047-0.462-0.099-0.82c-1.142-2.818-4.676-2.655-4.827-2.649
			c-0.281,0.017-0.507-0.194-0.522-0.467c-0.015-0.273,0.192-0.507,0.465-0.523c0.178-0.012,4.392-0.215,5.803,3.266
			c0.252,0.621,0.281,1.139,0.091,1.583c-0.306,0.715-1.081,1.021-1.9,1.344c-1.372,0.542-2.791,1.102-2.537,3.582
			c0.028,0.272-0.17,0.516-0.442,0.544C776.916,1283.635,776.891,1283.636,776.866,1283.634z"/>
		<path style="fill:#AF5945;" d="M710.484,1290.371c-0.013-0.001-0.026-0.002-0.039-0.003c-0.271-0.035-0.463-0.283-0.429-0.554
			c0.316-2.473-1.088-3.069-2.447-3.645c-0.811-0.344-1.578-0.669-1.866-1.391c-0.179-0.449-0.136-0.966,0.131-1.58
			c1.497-3.446,5.706-3.132,5.882-3.12c0.272,0.023,0.474,0.262,0.452,0.534c-0.022,0.272-0.27,0.471-0.534,0.453
			c-0.149-0.012-3.68-0.262-4.891,2.527c-0.154,0.355-0.194,0.63-0.119,0.818c0.135,0.339,0.717,0.585,1.333,0.847
			c1.375,0.583,3.454,1.465,3.043,4.683C710.967,1290.197,710.74,1290.384,710.484,1290.371z"/>
		<path style="fill:#F1F3F2;" d="M759.113,1330.53c0,0,33.738,8.025,45.189,48.601c12.849,45.529,16.85,118.785,6.56,168.159
			c-1.596,7.657-33.674,11.635-58.74,11.67c-32.4,0.046-85.603-8.309-97.265-17.691c-14.797-11.906,15.84-74.957,20.39-108.674
			c6.211-46.019,3.959-85.831,53.573-102.02C728.821,1330.575,752.668,1347.252,759.113,1330.53z"/>
		<path style="fill:#AF5945;" d="M746.815,1295.432c-1.779-0.089-3.727-0.446-5.755-1.245c-0.255-0.1-0.38-0.388-0.279-0.643
			c0.1-0.255,0.387-0.38,0.643-0.28c7.393,2.913,13.828-0.463,13.893-0.497c0.241-0.13,0.541-0.039,0.671,0.202
			c0.13,0.241,0.039,0.542-0.202,0.671C755.578,1293.751,751.888,1295.685,746.815,1295.432z"/>
		<path style="fill:#AF5945;" d="M748.576,1289.694c-0.191-0.01-0.367-0.13-0.439-0.32c-0.096-0.256,0.033-0.542,0.288-0.639
			c1.124-0.425,3.372-1.618,3.149-2.592c-0.31-1.357-3.217-7.25-4.311-9.406c-0.124-0.244-0.026-0.542,0.218-0.666
			c0.244-0.124,0.543-0.026,0.666,0.218c0.163,0.321,3.992,7.881,4.394,9.634c0.475,2.075-3.33,3.576-3.766,3.74
			C748.709,1289.688,748.641,1289.697,748.576,1289.694z"/>
		<path style="fill:#AF5945;" d="M761.337,1268.435c-0.114-0.006-0.229-0.035-0.337-0.091c-4.506-2.309-10.071-0.507-10.126-0.489
			c-0.435,0.144-0.906-0.091-1.052-0.526c-0.145-0.435,0.09-0.906,0.525-1.051c0.254-0.084,6.271-2.047,11.411,0.586
			c0.409,0.21,0.57,0.711,0.361,1.119C761.965,1268.283,761.653,1268.45,761.337,1268.435z"/>
		<path style="fill:#AF5945;" d="M730.935,1271.437c-0.242-0.012-0.476-0.129-0.63-0.339c-0.272-0.37-0.192-0.89,0.177-1.161
			c0.211-0.154,5.202-3.779,11.528-3.049c0.456,0.052,0.783,0.465,0.731,0.921c-0.052,0.457-0.475,0.782-0.921,0.731
			c-5.643-0.643-10.307,2.704-10.353,2.738C731.306,1271.395,731.118,1271.446,730.935,1271.437z"/>
		<path style="fill:#818496;" d="M625.501,1532.049c0,0-16.546,6.539-36.622-4.446
			C588.879,1527.603,607.448,1517.993,625.501,1532.049z"/>
		<path style="fill:#F69D85;" d="M610.298,1534.35c0,0,4.995,12.595,1.545,23.238c-3.45,10.643-7.217,14.046-11.669,15.705
			c-4.453,1.659-9.311-18.013-7.474-25.228C594.537,1540.851,599.573,1533.321,610.298,1534.35z"/>
		<path style="fill:#F69D85;" d="M613.13,1538.587c3.346,7.464,5.219,15.607,5.389,23.787c-0.038,1.047-0.012,2.723-0.135,3.758
			c0.068,2.085-0.708,4.792-3.31,4.525c-2.385-0.162-2.821-2.612-2.785-4.542c-0.699-7.992-3.665-15.794-7.941-22.548
			C599.332,1537.264,610.163,1531.08,613.13,1538.587z"/>
		<path style="fill:#F69D85;" d="M611.895,1557.737c-1.78,8.317-1.997,17.052-0.436,25.427c0.628,3.124-4.14,4.384-5.148,1.386
			c-1.259-3.314-2.25-6.794-2.955-10.273c-1.17-6.139-1.82-12.434-1.391-18.692C602.781,1548.057,614.271,1550.537,611.895,1557.737
			z"/>
		<path style="fill:#F69D85;" d="M608.18,1561.065c-1.854,5.376-2.765,11.115-2.937,16.802c-0.861,3.305,2.605,10.005-1.907,11.024
			c-4.629,0.528-4.92-12.489-5.494-15.876c-0.316-5.165-0.242-10.422,0.784-15.521
			C600.415,1549.882,611.825,1554.14,608.18,1561.065z"/>
		<path style="fill:#F69D85;" d="M604.041,1560.959c-3.9,7.337-5.689,15.916-4.742,24.199c0.373,3.158-4.472,4.03-5.236,0.967
			c-1.039-3.517-1.65-7.193-1.805-10.867c-0.185-6.795,0.662-13.766,3.238-20.103
			C598.941,1547.352,610.028,1554.879,604.041,1560.959z"/>
		<path style="fill:#F69D85;" d="M601.208,1550.113c-4.896,7.083-8.146,15.496-8.881,24.1c-1.103,3.366,2.433,10.979-1.923,11.828
			c-5.97,0.357-4.681-17.913-4.064-22.007c1.12-7.007,3.279-13.908,6.799-20.099
			C597.091,1537.527,606.371,1544.617,601.208,1550.113z"/>
		<path style="fill:#AF5945;" d="M604.486,1573.407c0.069-2.014,0.273-4.153,0.724-6.093c0.062-0.266,0.328-0.432,0.595-0.37
			c0.266,0.062,0.434,0.326,0.37,0.595c-1.344,5.776-0.395,13.679-0.386,13.758c0.037,0.271-0.159,0.519-0.431,0.552
			c-0.272,0.034-0.518-0.159-0.552-0.431C604.779,1581.195,604.344,1577.568,604.486,1573.407z"/>
		<path style="fill:#AF5945;" d="M598.52,1575.194c0.066-1.927,0.221-3.987,0.546-5.736c0.05-0.269,0.309-0.447,0.578-0.397
			c0.269,0.05,0.443,0.31,0.397,0.578c-0.869,4.679-0.482,11.929-0.478,12.002c0.021,0.277-0.194,0.507-0.468,0.522
			c-0.273,0.015-0.507-0.194-0.522-0.468C598.563,1581.505,598.406,1578.552,598.52,1575.194z"/>
		<path style="fill:#AF5945;" d="M591.923,1575.703c0-0.005,0-0.01,0-0.015c0.014-0.222,0.352-5.491,1.51-9.289
			c0.08-0.261,0.357-0.409,0.619-0.329c0.262,0.08,0.409,0.358,0.329,0.619c-1.124,3.685-1.465,9.008-1.468,9.062
			c-0.017,0.273-0.253,0.48-0.526,0.464C592.119,1576.197,591.914,1575.969,591.923,1575.703z"/>
		<path style="fill:#F69D85;" d="M592.814,1541.795l8.979-97.791c0.259-2.857,1.372-5.662,3.373-8.012l0.835-0.981l77.153-90.601
			c0.132-0.154,0.322-0.37,0.459-0.521c7.354-8.045,19.837-8.605,27.882-1.25c8.045,7.354,8.605,19.838,1.25,27.882l-77.328,84.589
			l-19.536,90.227c-1.227,5.698-6.544,9.714-12.495,9.168C596.957,1553.915,592.224,1548.224,592.814,1541.795z"/>
		<path style="fill:#F1F3F2;" d="M728.821,1330.575c0,0-36.015-3.081-60.828,18.534c-25.534,22.242-67.426,66.754-73.99,89.303
			c-6.565,22.55-5.123,89.191-5.123,89.191s18.98-4.713,36.622,4.446l17.607-72.173c0,0,60.521-57.528,70.435-79.288
			C723.456,1358.828,728.821,1330.575,728.821,1330.575z"/>
		<path style="fill:#818496;" d="M675.945,1427.504c-0.126-0.006-0.25-0.056-0.349-0.15c-0.215-0.207-0.221-0.548-0.015-0.763
			c0.253-0.263,25.406-26.459,36.273-43.862c0.158-0.253,0.491-0.329,0.744-0.172c0.253,0.158,0.329,0.491,0.172,0.743
			c-10.927,17.499-36.157,43.776-36.411,44.039C676.247,1427.456,676.094,1427.511,675.945,1427.504z"/>
		<path style="fill:#818496;" d="M814.519,1437.883c-0.266-0.012-0.488-0.22-0.511-0.493c-0.024-0.274-2.414-27.781-10.229-58.124
			c-0.074-0.288,0.099-0.583,0.388-0.657c0.287-0.072,0.583,0.1,0.657,0.388c7.837,30.434,10.235,58.027,10.258,58.302
			c0.025,0.297-0.195,0.558-0.492,0.583C814.567,1437.884,814.543,1437.884,814.519,1437.883z"/>
		<path style="fill:#818496;" d="M853.8,1394.158c-0.179-0.008-0.349-0.105-0.444-0.272c-2.486-4.363-7.384-9.629-7.433-9.682
			c-0.203-0.218-0.192-0.559,0.026-0.762c0.218-0.203,0.56-0.192,0.763,0.026c0.204,0.219,5.032,5.409,7.582,9.884
			c0.147,0.259,0.057,0.588-0.202,0.736C854,1394.14,853.899,1394.162,853.8,1394.158z"/>
		<path style="fill:#818496;" d="M627.084,1525.993c-0.088-0.004-0.178-0.03-0.259-0.08c-19.265-11.963-37.677-5.395-37.86-5.328
			c-0.283,0.104-0.59-0.041-0.693-0.319c-0.103-0.279,0.04-0.589,0.319-0.693c0.19-0.07,19.078-6.826,38.804,5.423
			c0.254,0.157,0.331,0.49,0.174,0.743C627.461,1525.911,627.273,1526.002,627.084,1525.993z"/>
		<path style="fill:#818496;" d="M921.742,1370.699c-0.053-0.003-0.106-0.012-0.158-0.031
			c-27.138-9.492-33.941-27.101-34.007-27.278c-0.104-0.28,0.043-0.589,0.328-0.691c0.285-0.1,0.601,0.043,0.705,0.323
			c0.064,0.172,6.724,17.32,33.341,26.629c0.286,0.1,0.436,0.409,0.335,0.69C922.203,1370.571,921.978,1370.71,921.742,1370.699z"/>
		<path style="fill:#64656E;" d="M714.617,1632.698c-0.049-0.002-0.099-0.011-0.149-0.028c-0.282-0.096-0.432-0.403-0.336-0.685
			l16.874-49.404c0.097-0.281,0.399-0.434,0.685-0.336c0.282,0.096,0.433,0.403,0.336,0.685l-16.874,49.404
			C715.073,1632.566,714.851,1632.709,714.617,1632.698z"/>
		<path style="fill:#64656E;" d="M620.601,1821.886c-19.816-0.932-36.423-6.474-36.673-6.558c-0.282-0.095-0.432-0.402-0.337-0.685
			c0.095-0.281,0.401-0.431,0.685-0.337c0.371,0.126,37.439,12.491,66.74,3.15c0.283-0.09,0.587,0.066,0.677,0.35
			c0.091,0.284-0.066,0.587-0.35,0.678C641.406,1821.653,630.595,1822.356,620.601,1821.886z"/>
		<path style="fill:#64656E;" d="M748.472,1821.83c-19.452-0.914-35.101-5.743-35.335-5.816c-0.284-0.089-0.442-0.392-0.353-0.677
			c0.089-0.284,0.388-0.443,0.677-0.353c0.348,0.111,35.293,10.887,65.57,3.089c0.287-0.072,0.583,0.1,0.657,0.388
			c0.074,0.288-0.099,0.582-0.388,0.657C769.051,1821.757,758.278,1822.291,748.472,1821.83z"/>
		<path style="fill:#64656E;" d="M600.392,1819.457c-0.036-0.002-0.073-0.007-0.11-0.016c-0.288-0.074-0.462-0.368-0.388-0.657
			l69.528-271.062c0.074-0.289,0.367-0.465,0.657-0.388c0.288,0.074,0.462,0.368,0.388,0.656l-69.528,271.063
			C600.875,1819.304,600.642,1819.469,600.392,1819.457z"/>
		<path style="fill:#818496;" d="M739.757,1543.141c-12.369-0.581-23.958-1.903-33.983-3.427
			c-31.504-4.789-54.768-12.55-54.999-12.628c-0.282-0.095-0.435-0.401-0.34-0.683c0.096-0.282,0.401-0.435,0.683-0.339
			c0.231,0.078,23.422,7.813,54.838,12.587c28.969,4.402,71.058,7.115,107.051-4.96c0.281-0.094,0.588,0.057,0.683,0.34
			c0.094,0.282-0.057,0.588-0.34,0.683C789.621,1542.674,763.281,1544.248,739.757,1543.141z"/>
		<path style="fill:#818496;" d="M739.508,1528.139c-12.369-0.582-23.797-1.839-33.605-3.274
			c-30.823-4.512-52.713-11.716-52.931-11.788c-0.282-0.094-0.435-0.399-0.341-0.682c0.093-0.282,0.395-0.438,0.682-0.342
			c0.217,0.072,22.034,7.25,52.768,11.747c28.348,4.147,70.294,6.799,109.151-4.127c0.286-0.082,0.584,0.087,0.665,0.373
			c0.081,0.287-0.087,0.585-0.374,0.665C789.935,1527.907,763.024,1529.244,739.508,1528.139z"/>
		<path style="fill:#818496;" d="M629.161,1517.478c-0.095-0.005-0.19-0.034-0.275-0.091c-17.644-11.866-39.761-5.306-39.983-5.238
			c-0.287,0.087-0.586-0.073-0.674-0.358c-0.087-0.285,0.073-0.586,0.358-0.673c0.226-0.07,22.838-6.775,40.901,5.375
			c0.247,0.166,0.313,0.501,0.147,0.748C629.526,1517.402,629.344,1517.486,629.161,1517.478z"/>
		<path style="fill:#818496;" d="M917.527,1378.709c-0.027-0.001-0.053-0.004-0.08-0.01c-25.987-5.109-36.411-28.884-36.513-29.123
			c-0.117-0.274,0.01-0.591,0.284-0.708c0.273-0.118,0.591,0.01,0.708,0.284c0.1,0.234,10.315,23.493,35.73,28.489
			c0.292,0.057,0.483,0.341,0.425,0.633C918.029,1378.54,917.79,1378.721,917.527,1378.709z"/>
		
			<ellipse transform="matrix(0.7071 -0.7071 0.7071 0.7071 -599.6282 1075.2045)" style="fill:#FFB12A;" cx="998.072" cy="1261.418" rx="99.703" ry="99.703"/>
		<path style="fill:#FACE6C;" d="M998.009,1347.209c-44.018,0-81.58-33.808-85.411-78.459
			c-4.043-47.131,31.011-88.763,78.141-92.807c47.13-4.039,88.763,31.011,92.807,78.141c4.043,47.13-31.01,88.763-78.141,92.807
			C1002.926,1347.104,1000.454,1347.209,998.009,1347.209z M998.133,1179.466c-2.338,0-4.694,0.1-7.065,0.304
			c-45.021,3.862-78.506,43.631-74.644,88.652c3.659,42.649,39.543,74.946,81.588,74.947c2.338,0,4.693-0.1,7.065-0.303
			c45.021-3.862,78.506-43.632,74.643-88.652C1076.062,1211.763,1040.178,1179.466,998.133,1179.466z"/>
		<path style="fill:#FACE6C;" d="M1036.119,1280.359c-1.302-15.176-10.949-24.286-30.565-29.76
			c-14.377-4.064-20.581-6.569-21.166-13.388c-0.471-5.49,4.154-10.814,14.725-11.721c5.026-0.431,9.487-0.096,13.255,0.554
			c5.42,0.935,10.573-2.685,11.576-8.093l0,0c1.024-5.52-2.652-10.876-8.196-11.764c-3.81-0.61-8.136-0.922-13.034-0.781
			l-0.012-0.142c-0.475-5.534-5.346-9.635-10.88-9.161l0,0c-5.534,0.475-9.635,5.346-9.161,10.88l0.163,1.906
			c-15.744,5.789-24.117,18.21-22.891,32.501c1.345,15.681,13.885,24.436,32.34,29.251c13.24,3.426,18.695,6.871,19.26,13.464
			c0.606,7.065-4.907,12.2-16.055,13.157c-5.898,0.506-11.795-0.059-17.023-1.172c-5.764-1.228-11.378,2.611-12.284,8.435l0,0
			c-0.848,5.448,2.772,10.561,8.179,11.636c5.232,1.041,11.469,1.64,17.797,1.419l0.008,0.099c0.475,5.534,5.346,9.635,10.88,9.161
			l0,0c5.534-0.475,9.635-5.346,9.161-10.88l-0.164-1.915C1029.827,1307.837,1037.335,1294.528,1036.119,1280.359z"/>
		<path style="fill:#F69D85;" d="M903.29,1335.482c4.901-8.244,11.791-15.49,20.068-20.385c4.715-3.752,8.691,2.03,3.398,5.022
			c-1.04,0.811-3.926,4.703-4.853,5.646c0,0,6.689,7.55,12.863,12.678l-4.54,5.193c-4.003,3.888-3.814,3.569-7.187,3.86
			C915.452,1347.689,899.987,1341.207,903.29,1335.482z"/>
		<path style="fill:#30313C;" d="M728.821,1324.838l-10.906,5.692l27.365,19.32l7.301-8.647l9.629,6.227l3.709-17.325l-6.793-3.31
			c0,0-2.389,7.08-8.037,7.725C745.442,1335.166,735.109,1330.307,728.821,1324.838z"/>
	</g>
	<path id="_x31_" style="fill:#30313C;" d="M2418.333,1878.014H178.061c-1.16,0-2.1-0.94-2.1-2.1s0.94-2.1,2.1-2.1h2240.272
		c1.159,0,2.1,0.94,2.1,2.1S2419.492,1878.014,2418.333,1878.014z"/>
</g>
</svg>
